<?plantuml 1.2026.2?><svg xmlns="http://www.w3.org/2000/svg" xmlns:xlink="http://www.w3.org/1999/xlink" contentStyleType="text/css" data-diagram-type="CLASS" height="1002px" preserveAspectRatio="none" style="width:386px;height:1002px;background:#FFFFFF;" version="1.1" viewBox="0 0 386 1002" width="386px" zoomAndPan="magnify"><defs/><g><!--class BluetoothManager--><g class="entity" data-qualified-name="BluetoothManager" data-source-line="4" id="ent0002"><rect fill="#F1F1F1" height="48" rx="2.5" ry="2.5" style="stroke:#181818;stroke-width:0.5;" width="146.4131" x="224" y="698.5"/><ellipse cx="239" cy="714.5" fill="#ADD1B2" rx="11" ry="11" style="stroke:#181818;stroke-width:1;"/><path d="M241.7656,710.375 Q241.9219,710.1563 242.1094,710.0469 Q242.2969,709.9375 242.5156,709.9375 Q242.8906,709.9375 243.125,710.2031 Q243.3594,710.4531 243.3594,711.0625 L243.3594,712.5156 Q243.3594,713.125 243.125,713.3906 Q242.8906,713.6563 242.5156,713.6563 Q242.1719,713.6563 241.9688,713.4531 Q241.7656,713.2656 241.6563,712.75 Q241.6094,712.3906 241.4219,712.2031 Q241.0938,711.8281 240.4844,711.6094 Q239.875,711.3906 239.25,711.3906 Q238.4844,711.3906 237.8438,711.7188 Q237.2188,712.0469 236.7188,712.7969 Q236.2344,713.5469 236.2344,714.5781 L236.2344,715.6719 Q236.2344,716.9063 237.125,717.7344 Q238.0156,718.5469 239.6094,718.5469 Q240.5469,718.5469 241.2031,718.2969 Q241.5938,718.1406 242.0156,717.7031 Q242.2813,717.4375 242.4219,717.3594 Q242.5781,717.2813 242.7813,717.2813 Q243.1094,717.2813 243.3594,717.5469 Q243.625,717.7969 243.625,718.1406 Q243.625,718.4844 243.2813,718.8906 Q242.7813,719.4688 241.9844,719.7969 Q240.9063,720.25 239.6094,720.25 Q238.0938,720.25 236.8906,719.625 Q235.9063,719.125 235.2188,718.0625 Q234.5313,716.9844 234.5313,715.7031 L234.5313,714.5469 Q234.5313,713.2188 235.1406,712.0781 Q235.7656,710.9219 236.8594,710.3125 Q237.9531,709.6875 239.1875,709.6875 Q239.9219,709.6875 240.5625,709.8594 Q241.2188,710.0156 241.7656,710.375 Z " fill="#000000"/><text fill="#000000" font-family="sans-serif" font-size="14" lengthAdjust="spacing" textLength="114.4131" x="253" y="720.2285">BluetoothManager</text><line style="stroke:#181818;stroke-width:0.5;" x1="225" x2="369.4131" y1="730.5" y2="730.5"/><line style="stroke:#181818;stroke-width:0.5;" x1="225" x2="369.4131" y1="738.5" y2="738.5"/></g><!--class CameraPage--><g class="entity" data-qualified-name="CameraPage" data-source-line="6" id="ent0003"><rect fill="#F1F1F1" height="48" rx="2.5" ry="2.5" style="stroke:#181818;stroke-width:0.5;" width="114.4893" x="240" y="283.5"/><ellipse cx="255" cy="299.5" fill="#ADD1B2" rx="11" ry="11" style="stroke:#181818;stroke-width:1;"/><path d="M257.7656,295.375 Q257.9219,295.1563 258.1094,295.0469 Q258.2969,294.9375 258.5156,294.9375 Q258.8906,294.9375 259.125,295.2031 Q259.3594,295.4531 259.3594,296.0625 L259.3594,297.5156 Q259.3594,298.125 259.125,298.3906 Q258.8906,298.6563 258.5156,298.6563 Q258.1719,298.6563 257.9688,298.4531 Q257.7656,298.2656 257.6563,297.75 Q257.6094,297.3906 257.4219,297.2031 Q257.0938,296.8281 256.4844,296.6094 Q255.875,296.3906 255.25,296.3906 Q254.4844,296.3906 253.8438,296.7188 Q253.2188,297.0469 252.7188,297.7969 Q252.2344,298.5469 252.2344,299.5781 L252.2344,300.6719 Q252.2344,301.9063 253.125,302.7344 Q254.0156,303.5469 255.6094,303.5469 Q256.5469,303.5469 257.2031,303.2969 Q257.5938,303.1406 258.0156,302.7031 Q258.2813,302.4375 258.4219,302.3594 Q258.5781,302.2813 258.7813,302.2813 Q259.1094,302.2813 259.3594,302.5469 Q259.625,302.7969 259.625,303.1406 Q259.625,303.4844 259.2813,303.8906 Q258.7813,304.4688 257.9844,304.7969 Q256.9063,305.25 255.6094,305.25 Q254.0938,305.25 252.8906,304.625 Q251.9063,304.125 251.2188,303.0625 Q250.5313,301.9844 250.5313,300.7031 L250.5313,299.5469 Q250.5313,298.2188 251.1406,297.0781 Q251.7656,295.9219 252.8594,295.3125 Q253.9531,294.6875 255.1875,294.6875 Q255.9219,294.6875 256.5625,294.8594 Q257.2188,295.0156 257.7656,295.375 Z " fill="#000000"/><text fill="#000000" font-family="sans-serif" font-size="14" lengthAdjust="spacing" textLength="82.4893" x="269" y="305.2285">CameraPage</text><line style="stroke:#181818;stroke-width:0.5;" x1="241" x2="353.4893" y1="315.5" y2="315.5"/><line style="stroke:#181818;stroke-width:0.5;" x1="241" x2="353.4893" y1="323.5" y2="323.5"/></g><!--class Clavier--><g class="entity" data-qualified-name="Clavier" data-source-line="8" id="ent0004"><rect fill="#F1F1F1" height="48" rx="2.5" ry="2.5" style="stroke:#181818;stroke-width:0.5;" width="75.5654" x="259" y="200.5"/><ellipse cx="274" cy="216.5" fill="#ADD1B2" rx="11" ry="11" style="stroke:#181818;stroke-width:1;"/><path d="M276.7656,212.375 Q276.9219,212.1563 277.1094,212.0469 Q277.2969,211.9375 277.5156,211.9375 Q277.8906,211.9375 278.125,212.2031 Q278.3594,212.4531 278.3594,213.0625 L278.3594,214.5156 Q278.3594,215.125 278.125,215.3906 Q277.8906,215.6563 277.5156,215.6563 Q277.1719,215.6563 276.9688,215.4531 Q276.7656,215.2656 276.6563,214.75 Q276.6094,214.3906 276.4219,214.2031 Q276.0938,213.8281 275.4844,213.6094 Q274.875,213.3906 274.25,213.3906 Q273.4844,213.3906 272.8438,213.7188 Q272.2188,214.0469 271.7188,214.7969 Q271.2344,215.5469 271.2344,216.5781 L271.2344,217.6719 Q271.2344,218.9063 272.125,219.7344 Q273.0156,220.5469 274.6094,220.5469 Q275.5469,220.5469 276.2031,220.2969 Q276.5938,220.1406 277.0156,219.7031 Q277.2813,219.4375 277.4219,219.3594 Q277.5781,219.2813 277.7813,219.2813 Q278.1094,219.2813 278.3594,219.5469 Q278.625,219.7969 278.625,220.1406 Q278.625,220.4844 278.2813,220.8906 Q277.7813,221.4688 276.9844,221.7969 Q275.9063,222.25 274.6094,222.25 Q273.0938,222.25 271.8906,221.625 Q270.9063,221.125 270.2188,220.0625 Q269.5313,218.9844 269.5313,217.7031 L269.5313,216.5469 Q269.5313,215.2188 270.1406,214.0781 Q270.7656,212.9219 271.8594,212.3125 Q272.9531,211.6875 274.1875,211.6875 Q274.9219,211.6875 275.5625,211.8594 Q276.2188,212.0156 276.7656,212.375 Z " fill="#000000"/><text fill="#000000" font-family="sans-serif" font-size="14" lengthAdjust="spacing" textLength="43.5654" x="288" y="222.2285">Clavier</text><line style="stroke:#181818;stroke-width:0.5;" x1="260" x2="333.5654" y1="232.5" y2="232.5"/><line style="stroke:#181818;stroke-width:0.5;" x1="260" x2="333.5654" y1="240.5" y2="240.5"/></g><!--class GpsTelemetrySource--><g class="entity" data-qualified-name="GpsTelemetrySource" data-source-line="10" id="ent0005"><rect fill="#F1F1F1" height="48" rx="2.5" ry="2.5" style="stroke:#181818;stroke-width:0.5;" width="164.2686" x="215" y="781.5"/><ellipse cx="230" cy="797.5" fill="#ADD1B2" rx="11" ry="11" style="stroke:#181818;stroke-width:1;"/><path d="M232.7656,793.375 Q232.9219,793.1563 233.1094,793.0469 Q233.2969,792.9375 233.5156,792.9375 Q233.8906,792.9375 234.125,793.2031 Q234.3594,793.4531 234.3594,794.0625 L234.3594,795.5156 Q234.3594,796.125 234.125,796.3906 Q233.8906,796.6563 233.5156,796.6563 Q233.1719,796.6563 232.9688,796.4531 Q232.7656,796.2656 232.6563,795.75 Q232.6094,795.3906 232.4219,795.2031 Q232.0938,794.8281 231.4844,794.6094 Q230.875,794.3906 230.25,794.3906 Q229.4844,794.3906 228.8438,794.7188 Q228.2188,795.0469 227.7188,795.7969 Q227.2344,796.5469 227.2344,797.5781 L227.2344,798.6719 Q227.2344,799.9063 228.125,800.7344 Q229.0156,801.5469 230.6094,801.5469 Q231.5469,801.5469 232.2031,801.2969 Q232.5938,801.1406 233.0156,800.7031 Q233.2813,800.4375 233.4219,800.3594 Q233.5781,800.2813 233.7813,800.2813 Q234.1094,800.2813 234.3594,800.5469 Q234.625,800.7969 234.625,801.1406 Q234.625,801.4844 234.2813,801.8906 Q233.7813,802.4688 232.9844,802.7969 Q231.9063,803.25 230.6094,803.25 Q229.0938,803.25 227.8906,802.625 Q226.9063,802.125 226.2188,801.0625 Q225.5313,799.9844 225.5313,798.7031 L225.5313,797.5469 Q225.5313,796.2188 226.1406,795.0781 Q226.7656,793.9219 227.8594,793.3125 Q228.9531,792.6875 230.1875,792.6875 Q230.9219,792.6875 231.5625,792.8594 Q232.2188,793.0156 232.7656,793.375 Z " fill="#000000"/><text fill="#000000" font-family="sans-serif" font-size="14" lengthAdjust="spacing" textLength="132.2686" x="244" y="803.2285">GpsTelemetrySource</text><line style="stroke:#181818;stroke-width:0.5;" x1="216" x2="378.2686" y1="813.5" y2="813.5"/><line style="stroke:#181818;stroke-width:0.5;" x1="216" x2="378.2686" y1="821.5" y2="821.5"/></g><!--class HAPage--><g class="entity" data-qualified-name="HAPage" data-source-line="12" id="ent0006"><rect fill="#F1F1F1" height="48" rx="2.5" ry="2.5" style="stroke:#181818;stroke-width:0.5;" width="84.1445" x="255" y="106.5"/><ellipse cx="270" cy="122.5" fill="#ADD1B2" rx="11" ry="11" style="stroke:#181818;stroke-width:1;"/><path d="M272.7656,118.375 Q272.9219,118.1563 273.1094,118.0469 Q273.2969,117.9375 273.5156,117.9375 Q273.8906,117.9375 274.125,118.2031 Q274.3594,118.4531 274.3594,119.0625 L274.3594,120.5156 Q274.3594,121.125 274.125,121.3906 Q273.8906,121.6563 273.5156,121.6563 Q273.1719,121.6563 272.9688,121.4531 Q272.7656,121.2656 272.6563,120.75 Q272.6094,120.3906 272.4219,120.2031 Q272.0938,119.8281 271.4844,119.6094 Q270.875,119.3906 270.25,119.3906 Q269.4844,119.3906 268.8438,119.7188 Q268.2188,120.0469 267.7188,120.7969 Q267.2344,121.5469 267.2344,122.5781 L267.2344,123.6719 Q267.2344,124.9063 268.125,125.7344 Q269.0156,126.5469 270.6094,126.5469 Q271.5469,126.5469 272.2031,126.2969 Q272.5938,126.1406 273.0156,125.7031 Q273.2813,125.4375 273.4219,125.3594 Q273.5781,125.2813 273.7813,125.2813 Q274.1094,125.2813 274.3594,125.5469 Q274.625,125.7969 274.625,126.1406 Q274.625,126.4844 274.2813,126.8906 Q273.7813,127.4688 272.9844,127.7969 Q271.9063,128.25 270.6094,128.25 Q269.0938,128.25 267.8906,127.625 Q266.9063,127.125 266.2188,126.0625 Q265.5313,124.9844 265.5313,123.7031 L265.5313,122.5469 Q265.5313,121.2188 266.1406,120.0781 Q266.7656,118.9219 267.8594,118.3125 Q268.9531,117.6875 270.1875,117.6875 Q270.9219,117.6875 271.5625,117.8594 Q272.2188,118.0156 272.7656,118.375 Z " fill="#000000"/><text fill="#000000" font-family="sans-serif" font-size="14" lengthAdjust="spacing" textLength="52.1445" x="284" y="128.2285">HAPage</text><line style="stroke:#181818;stroke-width:0.5;" x1="256" x2="338.1445" y1="138.5" y2="138.5"/><line style="stroke:#181818;stroke-width:0.5;" x1="256" x2="338.1445" y1="146.5" y2="146.5"/></g><!--class HomeAssistant--><g class="entity" data-qualified-name="HomeAssistant" data-source-line="14" id="ent0007"><rect fill="#F1F1F1" height="48" rx="2.5" ry="2.5" style="stroke:#181818;stroke-width:0.5;" width="126.1445" x="234" y="366.5"/><ellipse cx="249" cy="382.5" fill="#ADD1B2" rx="11" ry="11" style="stroke:#181818;stroke-width:1;"/><path d="M251.7656,378.375 Q251.9219,378.1563 252.1094,378.0469 Q252.2969,377.9375 252.5156,377.9375 Q252.8906,377.9375 253.125,378.2031 Q253.3594,378.4531 253.3594,379.0625 L253.3594,380.5156 Q253.3594,381.125 253.125,381.3906 Q252.8906,381.6563 252.5156,381.6563 Q252.1719,381.6563 251.9688,381.4531 Q251.7656,381.2656 251.6563,380.75 Q251.6094,380.3906 251.4219,380.2031 Q251.0938,379.8281 250.4844,379.6094 Q249.875,379.3906 249.25,379.3906 Q248.4844,379.3906 247.8438,379.7188 Q247.2188,380.0469 246.7188,380.7969 Q246.2344,381.5469 246.2344,382.5781 L246.2344,383.6719 Q246.2344,384.9063 247.125,385.7344 Q248.0156,386.5469 249.6094,386.5469 Q250.5469,386.5469 251.2031,386.2969 Q251.5938,386.1406 252.0156,385.7031 Q252.2813,385.4375 252.4219,385.3594 Q252.5781,385.2813 252.7813,385.2813 Q253.1094,385.2813 253.3594,385.5469 Q253.625,385.7969 253.625,386.1406 Q253.625,386.4844 253.2813,386.8906 Q252.7813,387.4688 251.9844,387.7969 Q250.9063,388.25 249.6094,388.25 Q248.0938,388.25 246.8906,387.625 Q245.9063,387.125 245.2188,386.0625 Q244.5313,384.9844 244.5313,383.7031 L244.5313,382.5469 Q244.5313,381.2188 245.1406,380.0781 Q245.7656,378.9219 246.8594,378.3125 Q247.9531,377.6875 249.1875,377.6875 Q249.9219,377.6875 250.5625,377.8594 Q251.2188,378.0156 251.7656,378.375 Z " fill="#000000"/><text fill="#000000" font-family="sans-serif" font-size="14" lengthAdjust="spacing" textLength="94.1445" x="263" y="388.2285">HomeAssistant</text><line style="stroke:#181818;stroke-width:0.5;" x1="235" x2="359.1445" y1="398.5" y2="398.5"/><line style="stroke:#181818;stroke-width:0.5;" x1="235" x2="359.1445" y1="406.5" y2="406.5"/></g><!--class MainWindow--><g class="entity" data-qualified-name="MainWindow" data-source-line="16" id="ent0008"><rect fill="#F1F1F1" height="48" rx="2.5" ry="2.5" style="stroke:#181818;stroke-width:0.5;" width="112.1377" x="241" y="12.5"/><ellipse cx="256" cy="28.5" fill="#ADD1B2" rx="11" ry="11" style="stroke:#181818;stroke-width:1;"/><path d="M258.7656,24.375 Q258.9219,24.1563 259.1094,24.0469 Q259.2969,23.9375 259.5156,23.9375 Q259.8906,23.9375 260.125,24.2031 Q260.3594,24.4531 260.3594,25.0625 L260.3594,26.5156 Q260.3594,27.125 260.125,27.3906 Q259.8906,27.6563 259.5156,27.6563 Q259.1719,27.6563 258.9688,27.4531 Q258.7656,27.2656 258.6563,26.75 Q258.6094,26.3906 258.4219,26.2031 Q258.0938,25.8281 257.4844,25.6094 Q256.875,25.3906 256.25,25.3906 Q255.4844,25.3906 254.8438,25.7188 Q254.2188,26.0469 253.7188,26.7969 Q253.2344,27.5469 253.2344,28.5781 L253.2344,29.6719 Q253.2344,30.9063 254.125,31.7344 Q255.0156,32.5469 256.6094,32.5469 Q257.5469,32.5469 258.2031,32.2969 Q258.5938,32.1406 259.0156,31.7031 Q259.2813,31.4375 259.4219,31.3594 Q259.5781,31.2813 259.7813,31.2813 Q260.1094,31.2813 260.3594,31.5469 Q260.625,31.7969 260.625,32.1406 Q260.625,32.4844 260.2813,32.8906 Q259.7813,33.4688 258.9844,33.7969 Q257.9063,34.25 256.6094,34.25 Q255.0938,34.25 253.8906,33.625 Q252.9063,33.125 252.2188,32.0625 Q251.5313,30.9844 251.5313,29.7031 L251.5313,28.5469 Q251.5313,27.2188 252.1406,26.0781 Q252.7656,24.9219 253.8594,24.3125 Q254.9531,23.6875 256.1875,23.6875 Q256.9219,23.6875 257.5625,23.8594 Q258.2188,24.0156 258.7656,24.375 Z " fill="#000000"/><text fill="#000000" font-family="sans-serif" font-size="14" lengthAdjust="spacing" textLength="80.1377" x="270" y="34.2285">MainWindow</text><line style="stroke:#181818;stroke-width:0.5;" x1="242" x2="352.1377" y1="44.5" y2="44.5"/><line style="stroke:#181818;stroke-width:0.5;" x1="242" x2="352.1377" y1="52.5" y2="52.5"/></g><!--class MediaPage--><g class="entity" data-qualified-name="MediaPage" data-source-line="18" id="ent0009"><rect fill="#F1F1F1" height="48" rx="2.5" ry="2.5" style="stroke:#181818;stroke-width:0.5;" width="102.8271" x="245.5" y="449.5"/><ellipse cx="260.5" cy="465.5" fill="#ADD1B2" rx="11" ry="11" style="stroke:#181818;stroke-width:1;"/><path d="M263.2656,461.375 Q263.4219,461.1563 263.6094,461.0469 Q263.7969,460.9375 264.0156,460.9375 Q264.3906,460.9375 264.625,461.2031 Q264.8594,461.4531 264.8594,462.0625 L264.8594,463.5156 Q264.8594,464.125 264.625,464.3906 Q264.3906,464.6563 264.0156,464.6563 Q263.6719,464.6563 263.4688,464.4531 Q263.2656,464.2656 263.1563,463.75 Q263.1094,463.3906 262.9219,463.2031 Q262.5938,462.8281 261.9844,462.6094 Q261.375,462.3906 260.75,462.3906 Q259.9844,462.3906 259.3438,462.7188 Q258.7188,463.0469 258.2188,463.7969 Q257.7344,464.5469 257.7344,465.5781 L257.7344,466.6719 Q257.7344,467.9063 258.625,468.7344 Q259.5156,469.5469 261.1094,469.5469 Q262.0469,469.5469 262.7031,469.2969 Q263.0938,469.1406 263.5156,468.7031 Q263.7813,468.4375 263.9219,468.3594 Q264.0781,468.2813 264.2813,468.2813 Q264.6094,468.2813 264.8594,468.5469 Q265.125,468.7969 265.125,469.1406 Q265.125,469.4844 264.7813,469.8906 Q264.2813,470.4688 263.4844,470.7969 Q262.4063,471.25 261.1094,471.25 Q259.5938,471.25 258.3906,470.625 Q257.4063,470.125 256.7188,469.0625 Q256.0313,467.9844 256.0313,466.7031 L256.0313,465.5469 Q256.0313,464.2188 256.6406,463.0781 Q257.2656,461.9219 258.3594,461.3125 Q259.4531,460.6875 260.6875,460.6875 Q261.4219,460.6875 262.0625,460.8594 Q262.7188,461.0156 263.2656,461.375 Z " fill="#000000"/><text fill="#000000" font-family="sans-serif" font-size="14" lengthAdjust="spacing" textLength="70.8271" x="274.5" y="471.2285">MediaPage</text><line style="stroke:#181818;stroke-width:0.5;" x1="246.5" x2="347.3271" y1="481.5" y2="481.5"/><line style="stroke:#181818;stroke-width:0.5;" x1="246.5" x2="347.3271" y1="489.5" y2="489.5"/></g><!--class Mpu9250Source--><g class="entity" data-qualified-name="Mpu9250Source" data-source-line="20" id="ent0010"><rect fill="#F1F1F1" height="48" rx="2.5" ry="2.5" style="stroke:#181818;stroke-width:0.5;" width="134.7373" x="229.5" y="864.5"/><ellipse cx="244.5" cy="880.5" fill="#ADD1B2" rx="11" ry="11" style="stroke:#181818;stroke-width:1;"/><path d="M247.2656,876.375 Q247.4219,876.1563 247.6094,876.0469 Q247.7969,875.9375 248.0156,875.9375 Q248.3906,875.9375 248.625,876.2031 Q248.8594,876.4531 248.8594,877.0625 L248.8594,878.5156 Q248.8594,879.125 248.625,879.3906 Q248.3906,879.6563 248.0156,879.6563 Q247.6719,879.6563 247.4688,879.4531 Q247.2656,879.2656 247.1563,878.75 Q247.1094,878.3906 246.9219,878.2031 Q246.5938,877.8281 245.9844,877.6094 Q245.375,877.3906 244.75,877.3906 Q243.9844,877.3906 243.3438,877.7188 Q242.7188,878.0469 242.2188,878.7969 Q241.7344,879.5469 241.7344,880.5781 L241.7344,881.6719 Q241.7344,882.9063 242.625,883.7344 Q243.5156,884.5469 245.1094,884.5469 Q246.0469,884.5469 246.7031,884.2969 Q247.0938,884.1406 247.5156,883.7031 Q247.7813,883.4375 247.9219,883.3594 Q248.0781,883.2813 248.2813,883.2813 Q248.6094,883.2813 248.8594,883.5469 Q249.125,883.7969 249.125,884.1406 Q249.125,884.4844 248.7813,884.8906 Q248.2813,885.4688 247.4844,885.7969 Q246.4063,886.25 245.1094,886.25 Q243.5938,886.25 242.3906,885.625 Q241.4063,885.125 240.7188,884.0625 Q240.0313,882.9844 240.0313,881.7031 L240.0313,880.5469 Q240.0313,879.2188 240.6406,878.0781 Q241.2656,876.9219 242.3594,876.3125 Q243.4531,875.6875 244.6875,875.6875 Q245.4219,875.6875 246.0625,875.8594 Q246.7188,876.0156 247.2656,876.375 Z " fill="#000000"/><text fill="#000000" font-family="sans-serif" font-size="14" lengthAdjust="spacing" textLength="102.7373" x="258.5" y="886.2285">Mpu9250Source</text><line style="stroke:#181818;stroke-width:0.5;" x1="230.5" x2="363.2373" y1="896.5" y2="896.5"/><line style="stroke:#181818;stroke-width:0.5;" x1="230.5" x2="363.2373" y1="904.5" y2="904.5"/></g><!--class NavigationPage--><g class="entity" data-qualified-name="NavigationPage" data-source-line="22" id="ent0011"><rect fill="#F1F1F1" height="48" rx="2.5" ry="2.5" style="stroke:#181818;stroke-width:0.5;" width="130.8477" x="231.5" y="532.5"/><ellipse cx="246.5" cy="548.5" fill="#ADD1B2" rx="11" ry="11" style="stroke:#181818;stroke-width:1;"/><path d="M249.2656,544.375 Q249.4219,544.1563 249.6094,544.0469 Q249.7969,543.9375 250.0156,543.9375 Q250.3906,543.9375 250.625,544.2031 Q250.8594,544.4531 250.8594,545.0625 L250.8594,546.5156 Q250.8594,547.125 250.625,547.3906 Q250.3906,547.6563 250.0156,547.6563 Q249.6719,547.6563 249.4688,547.4531 Q249.2656,547.2656 249.1563,546.75 Q249.1094,546.3906 248.9219,546.2031 Q248.5938,545.8281 247.9844,545.6094 Q247.375,545.3906 246.75,545.3906 Q245.9844,545.3906 245.3438,545.7188 Q244.7188,546.0469 244.2188,546.7969 Q243.7344,547.5469 243.7344,548.5781 L243.7344,549.6719 Q243.7344,550.9063 244.625,551.7344 Q245.5156,552.5469 247.1094,552.5469 Q248.0469,552.5469 248.7031,552.2969 Q249.0938,552.1406 249.5156,551.7031 Q249.7813,551.4375 249.9219,551.3594 Q250.0781,551.2813 250.2813,551.2813 Q250.6094,551.2813 250.8594,551.5469 Q251.125,551.7969 251.125,552.1406 Q251.125,552.4844 250.7813,552.8906 Q250.2813,553.4688 249.4844,553.7969 Q248.4063,554.25 247.1094,554.25 Q245.5938,554.25 244.3906,553.625 Q243.4063,553.125 242.7188,552.0625 Q242.0313,550.9844 242.0313,549.7031 L242.0313,548.5469 Q242.0313,547.2188 242.6406,546.0781 Q243.2656,544.9219 244.3594,544.3125 Q245.4531,543.6875 246.6875,543.6875 Q247.4219,543.6875 248.0625,543.8594 Q248.7188,544.0156 249.2656,544.375 Z " fill="#000000"/><text fill="#000000" font-family="sans-serif" font-size="14" lengthAdjust="spacing" textLength="98.8477" x="260.5" y="554.2285">NavigationPage</text><line style="stroke:#181818;stroke-width:0.5;" x1="232.5" x2="361.3477" y1="564.5" y2="564.5"/><line style="stroke:#181818;stroke-width:0.5;" x1="232.5" x2="361.3477" y1="572.5" y2="572.5"/></g><!--class SettingsPage--><g class="entity" data-qualified-name="SettingsPage" data-source-line="24" id="ent0012"><rect fill="#F1F1F1" height="48" rx="2.5" ry="2.5" style="stroke:#181818;stroke-width:0.5;" width="115.2822" x="239.5" y="615.5"/><ellipse cx="254.5" cy="631.5" fill="#ADD1B2" rx="11" ry="11" style="stroke:#181818;stroke-width:1;"/><path d="M257.2656,627.375 Q257.4219,627.1563 257.6094,627.0469 Q257.7969,626.9375 258.0156,626.9375 Q258.3906,626.9375 258.625,627.2031 Q258.8594,627.4531 258.8594,628.0625 L258.8594,629.5156 Q258.8594,630.125 258.625,630.3906 Q258.3906,630.6563 258.0156,630.6563 Q257.6719,630.6563 257.4688,630.4531 Q257.2656,630.2656 257.1563,629.75 Q257.1094,629.3906 256.9219,629.2031 Q256.5938,628.8281 255.9844,628.6094 Q255.375,628.3906 254.75,628.3906 Q253.9844,628.3906 253.3438,628.7188 Q252.7188,629.0469 252.2188,629.7969 Q251.7344,630.5469 251.7344,631.5781 L251.7344,632.6719 Q251.7344,633.9063 252.625,634.7344 Q253.5156,635.5469 255.1094,635.5469 Q256.0469,635.5469 256.7031,635.2969 Q257.0938,635.1406 257.5156,634.7031 Q257.7813,634.4375 257.9219,634.3594 Q258.0781,634.2813 258.2813,634.2813 Q258.6094,634.2813 258.8594,634.5469 Q259.125,634.7969 259.125,635.1406 Q259.125,635.4844 258.7813,635.8906 Q258.2813,636.4688 257.4844,636.7969 Q256.4063,637.25 255.1094,637.25 Q253.5938,637.25 252.3906,636.625 Q251.4063,636.125 250.7188,635.0625 Q250.0313,633.9844 250.0313,632.7031 L250.0313,631.5469 Q250.0313,630.2188 250.6406,629.0781 Q251.2656,627.9219 252.3594,627.3125 Q253.4531,626.6875 254.6875,626.6875 Q255.4219,626.6875 256.0625,626.8594 Q256.7188,627.0156 257.2656,627.375 Z " fill="#000000"/><text fill="#000000" font-family="sans-serif" font-size="14" lengthAdjust="spacing" textLength="83.2822" x="268.5" y="637.2285">SettingsPage</text><line style="stroke:#181818;stroke-width:0.5;" x1="240.5" x2="353.7822" y1="647.5" y2="647.5"/><line style="stroke:#181818;stroke-width:0.5;" x1="240.5" x2="353.7822" y1="655.5" y2="655.5"/></g><!--class TelemetryData--><g class="entity" data-qualified-name="TelemetryData" data-source-line="26" id="ent0013"><rect fill="#F1F1F1" height="48" rx="2.5" ry="2.5" style="stroke:#181818;stroke-width:0.5;" width="123.8066" x="235" y="947.5"/><ellipse cx="250" cy="963.5" fill="#ADD1B2" rx="11" ry="11" style="stroke:#181818;stroke-width:1;"/><path d="M252.7656,959.375 Q252.9219,959.1563 253.1094,959.0469 Q253.2969,958.9375 253.5156,958.9375 Q253.8906,958.9375 254.125,959.2031 Q254.3594,959.4531 254.3594,960.0625 L254.3594,961.5156 Q254.3594,962.125 254.125,962.3906 Q253.8906,962.6563 253.5156,962.6563 Q253.1719,962.6563 252.9688,962.4531 Q252.7656,962.2656 252.6563,961.75 Q252.6094,961.3906 252.4219,961.2031 Q252.0938,960.8281 251.4844,960.6094 Q250.875,960.3906 250.25,960.3906 Q249.4844,960.3906 248.8438,960.7188 Q248.2188,961.0469 247.7188,961.7969 Q247.2344,962.5469 247.2344,963.5781 L247.2344,964.6719 Q247.2344,965.9063 248.125,966.7344 Q249.0156,967.5469 250.6094,967.5469 Q251.5469,967.5469 252.2031,967.2969 Q252.5938,967.1406 253.0156,966.7031 Q253.2813,966.4375 253.4219,966.3594 Q253.5781,966.2813 253.7813,966.2813 Q254.1094,966.2813 254.3594,966.5469 Q254.625,966.7969 254.625,967.1406 Q254.625,967.4844 254.2813,967.8906 Q253.7813,968.4688 252.9844,968.7969 Q251.9063,969.25 250.6094,969.25 Q249.0938,969.25 247.8906,968.625 Q246.9063,968.125 246.2188,967.0625 Q245.5313,965.9844 245.5313,964.7031 L245.5313,963.5469 Q245.5313,962.2188 246.1406,961.0781 Q246.7656,959.9219 247.8594,959.3125 Q248.9531,958.6875 250.1875,958.6875 Q250.9219,958.6875 251.5625,958.8594 Q252.2188,959.0156 252.7656,959.375 Z " fill="#000000"/><text fill="#000000" font-family="sans-serif" font-size="14" lengthAdjust="spacing" textLength="91.8066" x="264" y="969.2285">TelemetryData</text><line style="stroke:#181818;stroke-width:0.5;" x1="236" x2="357.8066" y1="979.5" y2="979.5"/><line style="stroke:#181818;stroke-width:0.5;" x1="236" x2="357.8066" y1="987.5" y2="987.5"/></g><!--class QObject--><g class="entity" data-qualified-name="QObject" data-source-line="28" id="ent0014"><rect fill="#F1F1F1" height="58.7031" rx="2.5" ry="2.5" style="stroke:#181818;stroke-width:0.5;" width="84.0391" x="39" y="818"/><ellipse cx="54" cy="839.3516" fill="#ADD1B2" rx="11" ry="11" style="stroke:#181818;stroke-width:1;"/><path d="M56.7656,835.2266 Q56.9219,835.0078 57.1094,834.8984 Q57.2969,834.7891 57.5156,834.7891 Q57.8906,834.7891 58.125,835.0547 Q58.3594,835.3047 58.3594,835.9141 L58.3594,837.3672 Q58.3594,837.9766 58.125,838.2422 Q57.8906,838.5078 57.5156,838.5078 Q57.1719,838.5078 56.9688,838.3047 Q56.7656,838.1172 56.6563,837.6016 Q56.6094,837.2422 56.4219,837.0547 Q56.0938,836.6797 55.4844,836.4609 Q54.875,836.2422 54.25,836.2422 Q53.4844,836.2422 52.8438,836.5703 Q52.2188,836.8984 51.7188,837.6484 Q51.2344,838.3984 51.2344,839.4297 L51.2344,840.5234 Q51.2344,841.7578 52.125,842.5859 Q53.0156,843.3984 54.6094,843.3984 Q55.5469,843.3984 56.2031,843.1484 Q56.5938,842.9922 57.0156,842.5547 Q57.2813,842.2891 57.4219,842.2109 Q57.5781,842.1328 57.7813,842.1328 Q58.1094,842.1328 58.3594,842.3984 Q58.625,842.6484 58.625,842.9922 Q58.625,843.3359 58.2813,843.7422 Q57.7813,844.3203 56.9844,844.6484 Q55.9063,845.1016 54.6094,845.1016 Q53.0938,845.1016 51.8906,844.4766 Q50.9063,843.9766 50.2188,842.9141 Q49.5313,841.8359 49.5313,840.5547 L49.5313,839.3984 Q49.5313,838.0703 50.1406,836.9297 Q50.7656,835.7734 51.8594,835.1641 Q52.9531,834.5391 54.1875,834.5391 Q54.9219,834.5391 55.5625,834.7109 Q56.2188,834.8672 56.7656,835.2266 Z " fill="#000000"/><text fill="#000000" font-family="sans-serif" font-size="12" font-style="italic" lengthAdjust="spacing" textLength="56.0391" x="66" y="835.457">&#171;external&#187;</text><text fill="#000000" font-family="sans-serif" font-size="14" lengthAdjust="spacing" textLength="51.3516" x="68.3438" y="852.627">QObject</text><line style="stroke:#181818;stroke-width:0.5;" x1="40" x2="122.0391" y1="860.7031" y2="860.7031"/><line style="stroke:#181818;stroke-width:0.5;" x1="40" x2="122.0391" y1="868.7031" y2="868.7031"/></g><!--class QWidget--><g class="entity" data-qualified-name="QWidget" data-source-line="30" id="ent0016"><rect fill="#F1F1F1" height="58.7031" rx="2.5" ry="2.5" style="stroke:#181818;stroke-width:0.5;" width="86.4619" x="38" y="444"/><ellipse cx="53" cy="465.3516" fill="#ADD1B2" rx="11" ry="11" style="stroke:#181818;stroke-width:1;"/><path d="M55.7656,461.2266 Q55.9219,461.0078 56.1094,460.8984 Q56.2969,460.7891 56.5156,460.7891 Q56.8906,460.7891 57.125,461.0547 Q57.3594,461.3047 57.3594,461.9141 L57.3594,463.3672 Q57.3594,463.9766 57.125,464.2422 Q56.8906,464.5078 56.5156,464.5078 Q56.1719,464.5078 55.9688,464.3047 Q55.7656,464.1172 55.6563,463.6016 Q55.6094,463.2422 55.4219,463.0547 Q55.0938,462.6797 54.4844,462.4609 Q53.875,462.2422 53.25,462.2422 Q52.4844,462.2422 51.8438,462.5703 Q51.2188,462.8984 50.7188,463.6484 Q50.2344,464.3984 50.2344,465.4297 L50.2344,466.5234 Q50.2344,467.7578 51.125,468.5859 Q52.0156,469.3984 53.6094,469.3984 Q54.5469,469.3984 55.2031,469.1484 Q55.5938,468.9922 56.0156,468.5547 Q56.2813,468.2891 56.4219,468.2109 Q56.5781,468.1328 56.7813,468.1328 Q57.1094,468.1328 57.3594,468.3984 Q57.625,468.6484 57.625,468.9922 Q57.625,469.3359 57.2813,469.7422 Q56.7813,470.3203 55.9844,470.6484 Q54.9063,471.1016 53.6094,471.1016 Q52.0938,471.1016 50.8906,470.4766 Q49.9063,469.9766 49.2188,468.9141 Q48.5313,467.8359 48.5313,466.5547 L48.5313,465.3984 Q48.5313,464.0703 49.1406,462.9297 Q49.7656,461.7734 50.8594,461.1641 Q51.9531,460.5391 53.1875,460.5391 Q53.9219,460.5391 54.5625,460.7109 Q55.2188,460.8672 55.7656,461.2266 Z " fill="#000000"/><text fill="#000000" font-family="sans-serif" font-size="12" font-style="italic" lengthAdjust="spacing" textLength="56.0391" x="66.2114" y="461.457">&#171;external&#187;</text><text fill="#000000" font-family="sans-serif" font-size="14" lengthAdjust="spacing" textLength="54.4619" x="67" y="478.627">QWidget</text><line style="stroke:#181818;stroke-width:0.5;" x1="39" x2="123.4619" y1="486.7031" y2="486.7031"/><line style="stroke:#181818;stroke-width:0.5;" x1="39" x2="123.4619" y1="494.7031" y2="494.7031"/></g><!--class QDialog--><g class="entity" data-qualified-name="QDialog" data-source-line="32" id="ent0018"><rect fill="#F1F1F1" height="58.7031" rx="2.5" ry="2.5" style="stroke:#181818;stroke-width:0.5;" width="84.0391" x="39" y="195"/><ellipse cx="54" cy="216.3516" fill="#ADD1B2" rx="11" ry="11" style="stroke:#181818;stroke-width:1;"/><path d="M56.7656,212.2266 Q56.9219,212.0078 57.1094,211.8984 Q57.2969,211.7891 57.5156,211.7891 Q57.8906,211.7891 58.125,212.0547 Q58.3594,212.3047 58.3594,212.9141 L58.3594,214.3672 Q58.3594,214.9766 58.125,215.2422 Q57.8906,215.5078 57.5156,215.5078 Q57.1719,215.5078 56.9688,215.3047 Q56.7656,215.1172 56.6563,214.6016 Q56.6094,214.2422 56.4219,214.0547 Q56.0938,213.6797 55.4844,213.4609 Q54.875,213.2422 54.25,213.2422 Q53.4844,213.2422 52.8438,213.5703 Q52.2188,213.8984 51.7188,214.6484 Q51.2344,215.3984 51.2344,216.4297 L51.2344,217.5234 Q51.2344,218.7578 52.125,219.5859 Q53.0156,220.3984 54.6094,220.3984 Q55.5469,220.3984 56.2031,220.1484 Q56.5938,219.9922 57.0156,219.5547 Q57.2813,219.2891 57.4219,219.2109 Q57.5781,219.1328 57.7813,219.1328 Q58.1094,219.1328 58.3594,219.3984 Q58.625,219.6484 58.625,219.9922 Q58.625,220.3359 58.2813,220.7422 Q57.7813,221.3203 56.9844,221.6484 Q55.9063,222.1016 54.6094,222.1016 Q53.0938,222.1016 51.8906,221.4766 Q50.9063,220.9766 50.2188,219.9141 Q49.5313,218.8359 49.5313,217.5547 L49.5313,216.3984 Q49.5313,215.0703 50.1406,213.9297 Q50.7656,212.7734 51.8594,212.1641 Q52.9531,211.5391 54.1875,211.5391 Q54.9219,211.5391 55.5625,211.7109 Q56.2188,211.8672 56.7656,212.2266 Z " fill="#000000"/><text fill="#000000" font-family="sans-serif" font-size="12" font-style="italic" lengthAdjust="spacing" textLength="56.0391" x="66" y="212.457">&#171;external&#187;</text><text fill="#000000" font-family="sans-serif" font-size="14" lengthAdjust="spacing" textLength="50.5791" x="68.73" y="229.627">QDialog</text><line style="stroke:#181818;stroke-width:0.5;" x1="40" x2="122.0391" y1="237.7031" y2="237.7031"/><line style="stroke:#181818;stroke-width:0.5;" x1="40" x2="122.0391" y1="245.7031" y2="245.7031"/></g><!--class QWebEnginePage--><g class="entity" data-qualified-name="QWebEnginePage" data-source-line="36" id="ent0021"><rect fill="#F1F1F1" height="58.7031" rx="2.5" ry="2.5" style="stroke:#181818;stroke-width:0.5;" width="147.9648" x="7" y="101"/><ellipse cx="22" cy="122.3516" fill="#ADD1B2" rx="11" ry="11" style="stroke:#181818;stroke-width:1;"/><path d="M24.7656,118.2266 Q24.9219,118.0078 25.1094,117.8984 Q25.2969,117.7891 25.5156,117.7891 Q25.8906,117.7891 26.125,118.0547 Q26.3594,118.3047 26.3594,118.9141 L26.3594,120.3672 Q26.3594,120.9766 26.125,121.2422 Q25.8906,121.5078 25.5156,121.5078 Q25.1719,121.5078 24.9688,121.3047 Q24.7656,121.1172 24.6563,120.6016 Q24.6094,120.2422 24.4219,120.0547 Q24.0938,119.6797 23.4844,119.4609 Q22.875,119.2422 22.25,119.2422 Q21.4844,119.2422 20.8438,119.5703 Q20.2188,119.8984 19.7188,120.6484 Q19.2344,121.3984 19.2344,122.4297 L19.2344,123.5234 Q19.2344,124.7578 20.125,125.5859 Q21.0156,126.3984 22.6094,126.3984 Q23.5469,126.3984 24.2031,126.1484 Q24.5938,125.9922 25.0156,125.5547 Q25.2813,125.2891 25.4219,125.2109 Q25.5781,125.1328 25.7813,125.1328 Q26.1094,125.1328 26.3594,125.3984 Q26.625,125.6484 26.625,125.9922 Q26.625,126.3359 26.2813,126.7422 Q25.7813,127.3203 24.9844,127.6484 Q23.9063,128.1016 22.6094,128.1016 Q21.0938,128.1016 19.8906,127.4766 Q18.9063,126.9766 18.2188,125.9141 Q17.5313,124.8359 17.5313,123.5547 L17.5313,122.3984 Q17.5313,121.0703 18.1406,119.9297 Q18.7656,118.7734 19.8594,118.1641 Q20.9531,117.5391 22.1875,117.5391 Q22.9219,117.5391 23.5625,117.7109 Q24.2188,117.8672 24.7656,118.2266 Z " fill="#000000"/><text fill="#000000" font-family="sans-serif" font-size="12" font-style="italic" lengthAdjust="spacing" textLength="56.0391" x="65.9629" y="118.457">&#171;external&#187;</text><text fill="#000000" font-family="sans-serif" font-size="14" lengthAdjust="spacing" textLength="115.9648" x="36" y="135.627">QWebEnginePage</text><line style="stroke:#181818;stroke-width:0.5;" x1="8" x2="153.9648" y1="143.7031" y2="143.7031"/><line style="stroke:#181818;stroke-width:0.5;" x1="8" x2="153.9648" y1="151.7031" y2="151.7031"/></g><!--class QMainWindow--><g class="entity" data-qualified-name="QMainWindow" data-source-line="40" id="ent0024"><rect fill="#F1F1F1" height="58.7031" rx="2.5" ry="2.5" style="stroke:#181818;stroke-width:0.5;" width="123.0273" x="19.5" y="7"/><ellipse cx="34.5" cy="28.3516" fill="#ADD1B2" rx="11" ry="11" style="stroke:#181818;stroke-width:1;"/><path d="M37.2656,24.2266 Q37.4219,24.0078 37.6094,23.8984 Q37.7969,23.7891 38.0156,23.7891 Q38.3906,23.7891 38.625,24.0547 Q38.8594,24.3047 38.8594,24.9141 L38.8594,26.3672 Q38.8594,26.9766 38.625,27.2422 Q38.3906,27.5078 38.0156,27.5078 Q37.6719,27.5078 37.4688,27.3047 Q37.2656,27.1172 37.1563,26.6016 Q37.1094,26.2422 36.9219,26.0547 Q36.5938,25.6797 35.9844,25.4609 Q35.375,25.2422 34.75,25.2422 Q33.9844,25.2422 33.3438,25.5703 Q32.7188,25.8984 32.2188,26.6484 Q31.7344,27.3984 31.7344,28.4297 L31.7344,29.5234 Q31.7344,30.7578 32.625,31.5859 Q33.5156,32.3984 35.1094,32.3984 Q36.0469,32.3984 36.7031,32.1484 Q37.0938,31.9922 37.5156,31.5547 Q37.7813,31.2891 37.9219,31.2109 Q38.0781,31.1328 38.2813,31.1328 Q38.6094,31.1328 38.8594,31.3984 Q39.125,31.6484 39.125,31.9922 Q39.125,32.3359 38.7813,32.7422 Q38.2813,33.3203 37.4844,33.6484 Q36.4063,34.1016 35.1094,34.1016 Q33.5938,34.1016 32.3906,33.4766 Q31.4063,32.9766 30.7188,31.9141 Q30.0313,30.8359 30.0313,29.5547 L30.0313,28.3984 Q30.0313,27.0703 30.6406,25.9297 Q31.2656,24.7734 32.3594,24.1641 Q33.4531,23.5391 34.6875,23.5391 Q35.4219,23.5391 36.0625,23.7109 Q36.7188,23.8672 37.2656,24.2266 Z " fill="#000000"/><text fill="#000000" font-family="sans-serif" font-size="12" font-style="italic" lengthAdjust="spacing" textLength="56.0391" x="65.9941" y="24.457">&#171;external&#187;</text><text fill="#000000" font-family="sans-serif" font-size="14" lengthAdjust="spacing" textLength="91.0273" x="48.5" y="41.627">QMainWindow</text><line style="stroke:#181818;stroke-width:0.5;" x1="20.5" x2="141.5273" y1="49.7031" y2="49.7031"/><line style="stroke:#181818;stroke-width:0.5;" x1="20.5" x2="141.5273" y1="57.7031" y2="57.7031"/></g><!--reverse link QObject to BluetoothManager--><g class="link" data-entity-1="ent0014" data-entity-2="ent0002" data-link-type="extension" data-source-line="29" id="lnk15"><path codeLine="29" d="M138.271,810.9417 C164.291,794.2517 183.67,782.36 215,764.5 C225.6,758.46 237.15,752.25 248.12,746.53" fill="none" id="QObject-backto-BluetoothManager" style="stroke:#181818;stroke-width:1;"/><polygon fill="none" points="123.12,820.66,141.5105,815.992,135.0316,805.8913,123.12,820.66" style="stroke:#181818;stroke-width:1;"/></g><!--reverse link QWidget to CameraPage--><g class="link" data-entity-1="ent0016" data-entity-2="ent0003" data-link-type="extension" data-source-line="31" id="lnk17"><path codeLine="31" d="M121.0899,430.8055 C146.5899,403.7255 174.65,376.79 215,348.5 C223.65,342.44 233.32,336.74 242.88,331.63" fill="none" id="QWidget-backto-CameraPage" style="stroke:#181818;stroke-width:1;"/><polygon fill="none" points="108.75,443.91,125.458,434.9188,116.7217,426.6922,108.75,443.91" style="stroke:#181818;stroke-width:1;"/></g><!--reverse link QDialog to Clavier--><g class="link" data-entity-1="ent0018" data-entity-2="ent0004" data-link-type="extension" data-source-line="33" id="lnk19"><path codeLine="33" d="M141.01,224.5 C180.21,224.5 220.8,224.5 258.71,224.5" fill="none" id="QDialog-backto-Clavier" style="stroke:#181818;stroke-width:1;"/><polygon fill="none" points="123.01,224.5,141.01,230.5,141.01,218.5,123.01,224.5" style="stroke:#181818;stroke-width:1;"/></g><!--reverse link QObject to GpsTelemetrySource--><g class="link" data-entity-1="ent0014" data-entity-2="ent0005" data-link-type="extension" data-source-line="35" id="lnk20"><path codeLine="35" d="M140.6726,835.9814 C166.6426,830.8814 183.46,827.59 214.8,821.44" fill="none" id="QObject-backto-GpsTelemetrySource" style="stroke:#181818;stroke-width:1;"/><polygon fill="none" points="123.01,839.45,141.8288,841.8689,139.5164,830.0939,123.01,839.45" style="stroke:#181818;stroke-width:1;"/></g><!--reverse link QWebEnginePage to HAPage--><g class="link" data-entity-1="ent0021" data-entity-2="ent0006" data-link-type="extension" data-source-line="37" id="lnk22"><path codeLine="37" d="M173.05,130.5 C206.35,130.5 226.54,130.5 254.76,130.5" fill="none" id="QWebEnginePage-backto-HAPage" style="stroke:#181818;stroke-width:1;"/><polygon fill="none" points="155.05,130.5,173.05,136.5,173.05,124.5,155.05,130.5" style="stroke:#181818;stroke-width:1;"/></g><!--reverse link QWidget to HomeAssistant--><g class="link" data-entity-1="ent0016" data-entity-2="ent0007" data-link-type="extension" data-source-line="39" id="lnk23"><path codeLine="39" d="M140.803,450.6938 C172.093,438.5638 198.52,428.31 233.8,414.63" fill="none" id="QWidget-backto-HomeAssistant" style="stroke:#181818;stroke-width:1;"/><polygon fill="none" points="124.02,457.2,142.9717,456.2882,138.6343,445.0995,124.02,457.2" style="stroke:#181818;stroke-width:1;"/></g><!--reverse link QMainWindow to MainWindow--><g class="link" data-entity-1="ent0024" data-entity-2="ent0008" data-link-type="extension" data-source-line="41" id="lnk25"><path codeLine="41" d="M160.75,36.5 C191.64,36.5 210.91,36.5 240.95,36.5" fill="none" id="QMainWindow-backto-MainWindow" style="stroke:#181818;stroke-width:1;"/><polygon fill="none" points="142.75,36.5,160.75,42.5,160.75,30.5,142.75,36.5" style="stroke:#181818;stroke-width:1;"/></g><!--reverse link QWidget to MediaPage--><g class="link" data-entity-1="ent0016" data-entity-2="ent0009" data-link-type="extension" data-source-line="43" id="lnk26"><path codeLine="43" d="M142.02,473.5 C176.84,473.5 208.42,473.5 245.41,473.5" fill="none" id="QWidget-backto-MediaPage" style="stroke:#181818;stroke-width:1;"/><polygon fill="none" points="124.02,473.5,142.02,479.5,142.02,467.5,124.02,473.5" style="stroke:#181818;stroke-width:1;"/></g><!--reverse link QObject to Mpu9250Source--><g class="link" data-entity-1="ent0014" data-entity-2="ent0010" data-link-type="extension" data-source-line="45" id="lnk27"><path codeLine="45" d="M140.6892,858.7431 C170.7892,864.5031 194.63,869.08 229.46,875.75" fill="none" id="QObject-backto-Mpu9250Source" style="stroke:#181818;stroke-width:1;"/><polygon fill="none" points="123.01,855.36,139.5615,864.6362,141.8169,852.8501,123.01,855.36" style="stroke:#181818;stroke-width:1;"/></g><!--reverse link QWidget to NavigationPage--><g class="link" data-entity-1="ent0016" data-entity-2="ent0011" data-link-type="extension" data-source-line="47" id="lnk28"><path codeLine="47" d="M140.803,496.3062 C172.093,508.4362 198.52,518.69 233.8,532.37" fill="none" id="QWidget-backto-NavigationPage" style="stroke:#181818;stroke-width:1;"/><polygon fill="none" points="124.02,489.8,138.6343,501.9005,142.9717,490.7118,124.02,489.8" style="stroke:#181818;stroke-width:1;"/></g><!--reverse link QWidget to SettingsPage--><g class="link" data-entity-1="ent0016" data-entity-2="ent0012" data-link-type="extension" data-source-line="49" id="lnk29"><path codeLine="49" d="M121.0899,516.1945 C146.5899,543.2745 174.65,570.21 215,598.5 C223.65,604.56 233.32,610.26 242.88,615.37" fill="none" id="QWidget-backto-SettingsPage" style="stroke:#181818;stroke-width:1;"/><polygon fill="none" points="108.75,503.09,116.7217,520.3078,125.458,512.0812,108.75,503.09" style="stroke:#181818;stroke-width:1;"/></g><!--reverse link QObject to TelemetryData--><g class="link" data-entity-1="ent0014" data-entity-2="ent0013" data-link-type="extension" data-source-line="51" id="lnk30"><path codeLine="51" d="M138.197,884.1901 C164.197,900.9201 183.58,912.79 215,930.5 C225.16,936.23 236.22,942.07 246.8,947.48" fill="none" id="QObject-backto-TelemetryData" style="stroke:#181818;stroke-width:1;"/><polygon fill="none" points="123.06,874.45,134.9503,889.2358,141.4438,879.1444,123.06,874.45" style="stroke:#181818;stroke-width:1;"/></g><?plantuml-src ZPBBRi8m44Nt-Gh_01Agr4KbX9IMgdH17qebraCoE4CT6zcJllllJQ09jjbucJjpCjTtHk6M1HjXITOiAh9OCXcTkLVIUx3GY5A1SpcpfKtBU5yQNT0NYgdNucgep3jfARQW76O7H5oh5jaOhbUWGQ8LtzdlV-a66hJmrAc-gE2DWhQxlNj1XGso_InCQqk_VPb7_D8qc3j7Za6pfw-0z9fqvz0NiQBOm6hVNbrSJiycFNI-9FInH421pDshNIIFdXV0uEdFZvjT5w-OpV23qMfGytasYZ-JoLba0xYcIc8C3c8FdW8Ta0M1CZ921l607EDEzdQ-ZD4TRcwr98s772AJOQt_qN5noKyBrZfGtav3qY_qzEaxUU1u6idH18UJF2SygsJCFxfaXy59_W40?></g></svg>