<?plantuml 1.2026.2?><svg xmlns="http://www.w3.org/2000/svg" xmlns:xlink="http://www.w3.org/1999/xlink" contentStyleType="text/css" data-diagram-type="CLASS" height="2831px" preserveAspectRatio="none" style="width:1082px;height:2831px;background:#FFFFFF;" version="1.1" viewBox="0 0 1082 2831" width="1082px" zoomAndPan="magnify"><defs/><g><!--class BluetoothManager--><g class="entity" data-qualified-name="BluetoothManager" data-source-line="4" id="ent0002"><rect fill="#F1F1F1" height="255.3125" rx="2.5" ry="2.5" style="stroke:#181818;stroke-width:0.5;" width="355.9502" x="467.5" y="1943.5"/><ellipse cx="584.0186" cy="1959.5" fill="#ADD1B2" rx="11" ry="11" style="stroke:#181818;stroke-width:1;"/><path d="M586.7842,1955.375 Q586.9404,1955.1563 587.1279,1955.0469 Q587.3154,1954.9375 587.5342,1954.9375 Q587.9092,1954.9375 588.1436,1955.2031 Q588.3779,1955.4531 588.3779,1956.0625 L588.3779,1957.5156 Q588.3779,1958.125 588.1436,1958.3906 Q587.9092,1958.6563 587.5342,1958.6563 Q587.1904,1958.6563 586.9873,1958.4531 Q586.7842,1958.2656 586.6748,1957.75 Q586.6279,1957.3906 586.4404,1957.2031 Q586.1123,1956.8281 585.5029,1956.6094 Q584.8936,1956.3906 584.2686,1956.3906 Q583.5029,1956.3906 582.8623,1956.7188 Q582.2373,1957.0469 581.7373,1957.7969 Q581.2529,1958.5469 581.2529,1959.5781 L581.2529,1960.6719 Q581.2529,1961.9063 582.1436,1962.7344 Q583.0342,1963.5469 584.6279,1963.5469 Q585.5654,1963.5469 586.2217,1963.2969 Q586.6123,1963.1406 587.0342,1962.7031 Q587.2998,1962.4375 587.4404,1962.3594 Q587.5967,1962.2813 587.7998,1962.2813 Q588.1279,1962.2813 588.3779,1962.5469 Q588.6436,1962.7969 588.6436,1963.1406 Q588.6436,1963.4844 588.2998,1963.8906 Q587.7998,1964.4688 587.0029,1964.7969 Q585.9248,1965.25 584.6279,1965.25 Q583.1123,1965.25 581.9092,1964.625 Q580.9248,1964.125 580.2373,1963.0625 Q579.5498,1961.9844 579.5498,1960.7031 L579.5498,1959.5469 Q579.5498,1958.2188 580.1592,1957.0781 Q580.7842,1955.9219 581.8779,1955.3125 Q582.9717,1954.6875 584.2061,1954.6875 Q584.9404,1954.6875 585.5811,1954.8594 Q586.2373,1955.0156 586.7842,1955.375 Z " fill="#000000"/><text fill="#000000" font-family="sans-serif" font-size="14" lengthAdjust="spacing" textLength="114.4131" x="604.5186" y="1965.2285">BluetoothManager</text><line style="stroke:#181818;stroke-width:0.5;" x1="468.5" x2="822.4502" y1="1975.5" y2="1975.5"/><text fill="#000000" font-family="sans-serif" font-size="14" lengthAdjust="spacing" textLength="343.9502" x="473.5" y="2015.6426">#BluetoothManager(QObject *parent) : QObject(parent)</text><text fill="#000000" font-family="sans-serif" font-size="14" lengthAdjust="spacing" textLength="117.4893" x="473.5" y="2033.252">#findActivePlayer()</text><text fill="#000000" font-family="sans-serif" font-size="14" lengthAdjust="spacing" textLength="308.8955" x="473.5" y="2050.8613">#connectToService(const QString &amp;serviceName)</text><text fill="#000000" font-family="sans-serif" font-size="14" lengthAdjust="spacing" textLength="311.2607" x="473.5" y="2068.4707">#handleDBusSignal(const QDBusMessage &amp;msg)</text><text fill="#000000" font-family="sans-serif" font-size="14" lengthAdjust="spacing" textLength="118.3027" x="473.5" y="2086.0801">#updateMetadata()</text><text fill="#000000" font-family="sans-serif" font-size="14" lengthAdjust="spacing" textLength="156.4268" x="473.5" y="2103.6895">#updatePlaybackStatus()</text><text fill="#000000" font-family="sans-serif" font-size="14" lengthAdjust="spacing" textLength="109.7373" x="473.5" y="2121.2988">#updatePosition()</text><text fill="#000000" font-family="sans-serif" font-size="14" lengthAdjust="spacing" textLength="329.1709" x="473.5" y="2138.9082">#parseMetadataMap(const QVariantMap &amp;metadata)</text><text fill="#000000" font-family="sans-serif" font-size="14" lengthAdjust="spacing" textLength="82.4893" x="473.5" y="2156.5176">#togglePlay()</text><text fill="#000000" font-family="sans-serif" font-size="14" lengthAdjust="spacing" textLength="43.5723" x="473.5" y="2174.127">#next()</text><text fill="#000000" font-family="sans-serif" font-size="14" lengthAdjust="spacing" textLength="70.0273" x="473.5" y="2191.7363">#previous()</text><line style="stroke:#181818;stroke-width:1;stroke-dasharray:1,2;" x1="468.5" x2="601.8857" y1="1992.3047" y2="1992.3047"/><text fill="#000000" font-family="sans-serif" font-size="14" lengthAdjust="spacing" textLength="87.1787" x="601.8857" y="1997.5332">defined in cpp</text><line style="stroke:#181818;stroke-width:1;stroke-dasharray:1,2;" x1="689.0645" x2="822.4502" y1="1992.3047" y2="1992.3047"/></g><!--class CameraPage--><g class="entity" data-qualified-name="CameraPage" data-source-line="18" id="ent0003"><rect fill="#F1F1F1" height="167.2656" rx="2.5" ry="2.5" style="stroke:#181818;stroke-width:0.5;" width="215.0957" x="538" y="948.5"/><ellipse cx="600.0532" cy="964.5" fill="#ADD1B2" rx="11" ry="11" style="stroke:#181818;stroke-width:1;"/><path d="M602.8188,960.375 Q602.9751,960.1563 603.1626,960.0469 Q603.3501,959.9375 603.5688,959.9375 Q603.9438,959.9375 604.1782,960.2031 Q604.4126,960.4531 604.4126,961.0625 L604.4126,962.5156 Q604.4126,963.125 604.1782,963.3906 Q603.9438,963.6563 603.5688,963.6563 Q603.2251,963.6563 603.022,963.4531 Q602.8188,963.2656 602.7095,962.75 Q602.6626,962.3906 602.4751,962.2031 Q602.147,961.8281 601.5376,961.6094 Q600.9282,961.3906 600.3032,961.3906 Q599.5376,961.3906 598.897,961.7188 Q598.272,962.0469 597.772,962.7969 Q597.2876,963.5469 597.2876,964.5781 L597.2876,965.6719 Q597.2876,966.9063 598.1782,967.7344 Q599.0688,968.5469 600.6626,968.5469 Q601.6001,968.5469 602.2563,968.2969 Q602.647,968.1406 603.0688,967.7031 Q603.3345,967.4375 603.4751,967.3594 Q603.6313,967.2813 603.8345,967.2813 Q604.1626,967.2813 604.4126,967.5469 Q604.6782,967.7969 604.6782,968.1406 Q604.6782,968.4844 604.3345,968.8906 Q603.8345,969.4688 603.0376,969.7969 Q601.9595,970.25 600.6626,970.25 Q599.147,970.25 597.9438,969.625 Q596.9595,969.125 596.272,968.0625 Q595.5845,966.9844 595.5845,965.7031 L595.5845,964.5469 Q595.5845,963.2188 596.1938,962.0781 Q596.8188,960.9219 597.9126,960.3125 Q599.0063,959.6875 600.2407,959.6875 Q600.9751,959.6875 601.6157,959.8594 Q602.272,960.0156 602.8188,960.375 Z " fill="#000000"/><text fill="#000000" font-family="sans-serif" font-size="14" lengthAdjust="spacing" textLength="82.4893" x="620.5532" y="970.2285">CameraPage</text><line style="stroke:#181818;stroke-width:0.5;" x1="539" x2="752.0957" y1="980.5" y2="980.5"/><text fill="#000000" font-family="sans-serif" font-size="14" lengthAdjust="spacing" textLength="203.0957" x="544" y="1020.6426">#CameraPage(QWidget *parent)</text><text fill="#000000" font-family="sans-serif" font-size="14" lengthAdjust="spacing" textLength="111.2617" x="544" y="1038.252">: QWidget(parent)</text><text fill="#000000" font-family="sans-serif" font-size="14" lengthAdjust="spacing" textLength="161.0615" x="544" y="1055.8613">, ui(new Ui::CameraPage)</text><text fill="#000000" font-family="sans-serif" font-size="14" lengthAdjust="spacing" textLength="89.4619" x="544" y="1073.4707">#startStream()</text><text fill="#000000" font-family="sans-serif" font-size="14" lengthAdjust="spacing" textLength="88.6963" x="544" y="1091.0801">#stopStream()</text><text fill="#000000" font-family="sans-serif" font-size="14" lengthAdjust="spacing" textLength="185.9785" x="544" y="1108.6895">#processPendingDatagrams()</text><line style="stroke:#181818;stroke-width:1;stroke-dasharray:1,2;" x1="539" x2="601.9585" y1="997.3047" y2="997.3047"/><text fill="#000000" font-family="sans-serif" font-size="14" lengthAdjust="spacing" textLength="87.1787" x="601.9585" y="1002.5332">defined in cpp</text><line style="stroke:#181818;stroke-width:1;stroke-dasharray:1,2;" x1="689.1372" x2="752.0957" y1="997.3047" y2="997.3047"/></g><!--class Clavier--><g class="entity" data-qualified-name="Clavier" data-source-line="27" id="ent0004"><rect fill="#F1F1F1" height="431.4063" rx="2.5" ry="2.5" style="stroke:#181818;stroke-width:0.5;" width="568.3086" x="361.5" y="482.5"/><ellipse cx="619.6216" cy="498.5" fill="#ADD1B2" rx="11" ry="11" style="stroke:#181818;stroke-width:1;"/><path d="M622.3872,494.375 Q622.5435,494.1563 622.731,494.0469 Q622.9185,493.9375 623.1372,493.9375 Q623.5122,493.9375 623.7466,494.2031 Q623.981,494.4531 623.981,495.0625 L623.981,496.5156 Q623.981,497.125 623.7466,497.3906 Q623.5122,497.6563 623.1372,497.6563 Q622.7935,497.6563 622.5903,497.4531 Q622.3872,497.2656 622.2778,496.75 Q622.231,496.3906 622.0435,496.2031 Q621.7153,495.8281 621.106,495.6094 Q620.4966,495.3906 619.8716,495.3906 Q619.106,495.3906 618.4653,495.7188 Q617.8403,496.0469 617.3403,496.7969 Q616.856,497.5469 616.856,498.5781 L616.856,499.6719 Q616.856,500.9063 617.7466,501.7344 Q618.6372,502.5469 620.231,502.5469 Q621.1685,502.5469 621.8247,502.2969 Q622.2153,502.1406 622.6372,501.7031 Q622.9028,501.4375 623.0435,501.3594 Q623.1997,501.2813 623.4028,501.2813 Q623.731,501.2813 623.981,501.5469 Q624.2466,501.7969 624.2466,502.1406 Q624.2466,502.4844 623.9028,502.8906 Q623.4028,503.4688 622.606,503.7969 Q621.5278,504.25 620.231,504.25 Q618.7153,504.25 617.5122,503.625 Q616.5278,503.125 615.8403,502.0625 Q615.1528,500.9844 615.1528,499.7031 L615.1528,498.5469 Q615.1528,497.2188 615.7622,496.0781 Q616.3872,494.9219 617.481,494.3125 Q618.5747,493.6875 619.8091,493.6875 Q620.5435,493.6875 621.1841,493.8594 Q621.8403,494.0156 622.3872,494.375 Z " fill="#000000"/><text fill="#000000" font-family="sans-serif" font-size="14" lengthAdjust="spacing" textLength="43.5654" x="640.1216" y="504.2285">Clavier</text><line style="stroke:#181818;stroke-width:0.5;" x1="362.5" x2="928.8086" y1="514.5" y2="514.5"/><text fill="#000000" font-family="sans-serif" font-size="14" lengthAdjust="spacing" textLength="556.3086" x="367.5" y="554.6426">#Clavier(QWidget *parent) : QDialog(parent), majusculeActive(true), isSymbolMode(false)</text><text fill="#000000" font-family="sans-serif" font-size="14" lengthAdjust="spacing" textLength="99.627" x="367.5" y="572.252">#handleButton()</text><text fill="#000000" font-family="sans-serif" font-size="14" lengthAdjust="spacing" textLength="85.5996" x="367.5" y="589.8613">#deleteChar()</text><text fill="#000000" font-family="sans-serif" font-size="14" lengthAdjust="spacing" textLength="92.5928" x="367.5" y="607.4707">#validateText()</text><text fill="#000000" font-family="sans-serif" font-size="14" lengthAdjust="spacing" textLength="83.2686" x="367.5" y="625.0801">#toggleShift()</text><text fill="#000000" font-family="sans-serif" font-size="14" lengthAdjust="spacing" textLength="91.0547" x="367.5" y="642.6895">#updateKeys()</text><text fill="#000000" font-family="sans-serif" font-size="14" lengthAdjust="spacing" textLength="80.165" x="367.5" y="660.2988">#addSpace()</text><text fill="#000000" font-family="sans-serif" font-size="14" lengthAdjust="spacing" textLength="112.834" x="367.5" y="677.9082">#addUnderscore()</text><text fill="#000000" font-family="sans-serif" font-size="14" lengthAdjust="spacing" textLength="115.9375" x="367.5" y="695.5176">#switchKeyboard()</text><text fill="#000000" font-family="sans-serif" font-size="14" lengthAdjust="spacing" textLength="98.041" x="367.5" y="713.127">#switchLayout()</text><text fill="#000000" font-family="sans-serif" font-size="14" lengthAdjust="spacing" textLength="161.8955" x="367.5" y="730.7363">#updateKeyboardLayout()</text><text fill="#000000" font-family="sans-serif" font-size="14" lengthAdjust="spacing" textLength="111.2686" x="367.5" y="748.3457">#startLongPress()</text><text fill="#000000" font-family="sans-serif" font-size="14" lengthAdjust="spacing" textLength="110.5029" x="367.5" y="765.9551">#stopLongPress()</text><text fill="#000000" font-family="sans-serif" font-size="14" lengthAdjust="spacing" textLength="126.082" x="367.5" y="783.5645">#handleLongPress()</text><text fill="#000000" font-family="sans-serif" font-size="14" lengthAdjust="spacing" textLength="245.1504" x="367.5" y="801.1738">#showAccentPopup(QPushButton* btn)</text><text fill="#000000" font-family="sans-serif" font-size="14" lengthAdjust="spacing" textLength="94.1445" x="367.5" y="818.7832">#insertAccent()</text><text fill="#000000" font-family="sans-serif" font-size="14" lengthAdjust="spacing" textLength="120.5996" x="367.5" y="836.3926">#startDeleteDelay()</text><text fill="#000000" font-family="sans-serif" font-size="14" lengthAdjust="spacing" textLength="84.8066" x="367.5" y="854.002">#startDelete()</text><text fill="#000000" font-family="sans-serif" font-size="14" lengthAdjust="spacing" textLength="84.041" x="367.5" y="871.6113">#stopDelete()</text><text fill="#000000" font-family="sans-serif" font-size="14" lengthAdjust="spacing" textLength="127.6064" x="367.5" y="889.2207">#loadUsageHistory()</text><text fill="#000000" font-family="sans-serif" font-size="14" lengthAdjust="spacing" textLength="19.4551" x="367.5" y="906.8301">#...</text><line style="stroke:#181818;stroke-width:1;stroke-dasharray:1,2;" x1="362.5" x2="602.0649" y1="531.3047" y2="531.3047"/><text fill="#000000" font-family="sans-serif" font-size="14" lengthAdjust="spacing" textLength="87.1787" x="602.0649" y="536.5332">defined in cpp</text><line style="stroke:#181818;stroke-width:1;stroke-dasharray:1,2;" x1="689.2437" x2="928.8086" y1="531.3047" y2="531.3047"/></g><!--class GpsTelemetrySource--><g class="entity" data-qualified-name="GpsTelemetrySource" data-source-line="51" id="ent0005"><rect fill="#F1F1F1" height="149.6563" rx="2.5" ry="2.5" style="stroke:#181818;stroke-width:0.5;" width="397.9365" x="446.5" y="2234"/><ellipse cx="575.084" cy="2250" fill="#ADD1B2" rx="11" ry="11" style="stroke:#181818;stroke-width:1;"/><path d="M577.8496,2245.875 Q578.0059,2245.6563 578.1934,2245.5469 Q578.3809,2245.4375 578.5996,2245.4375 Q578.9746,2245.4375 579.209,2245.7031 Q579.4434,2245.9531 579.4434,2246.5625 L579.4434,2248.0156 Q579.4434,2248.625 579.209,2248.8906 Q578.9746,2249.1563 578.5996,2249.1563 Q578.2559,2249.1563 578.0527,2248.9531 Q577.8496,2248.7656 577.7402,2248.25 Q577.6934,2247.8906 577.5059,2247.7031 Q577.1777,2247.3281 576.5684,2247.1094 Q575.959,2246.8906 575.334,2246.8906 Q574.5684,2246.8906 573.9277,2247.2188 Q573.3027,2247.5469 572.8027,2248.2969 Q572.3184,2249.0469 572.3184,2250.0781 L572.3184,2251.1719 Q572.3184,2252.4063 573.209,2253.2344 Q574.0996,2254.0469 575.6934,2254.0469 Q576.6309,2254.0469 577.2871,2253.7969 Q577.6777,2253.6406 578.0996,2253.2031 Q578.3652,2252.9375 578.5059,2252.8594 Q578.6621,2252.7813 578.8652,2252.7813 Q579.1934,2252.7813 579.4434,2253.0469 Q579.709,2253.2969 579.709,2253.6406 Q579.709,2253.9844 579.3652,2254.3906 Q578.8652,2254.9688 578.0684,2255.2969 Q576.9902,2255.75 575.6934,2255.75 Q574.1777,2255.75 572.9746,2255.125 Q571.9902,2254.625 571.3027,2253.5625 Q570.6152,2252.4844 570.6152,2251.2031 L570.6152,2250.0469 Q570.6152,2248.7188 571.2246,2247.5781 Q571.8496,2246.4219 572.9434,2245.8125 Q574.0371,2245.1875 575.2715,2245.1875 Q576.0059,2245.1875 576.6465,2245.3594 Q577.3027,2245.5156 577.8496,2245.875 Z " fill="#000000"/><text fill="#000000" font-family="sans-serif" font-size="14" lengthAdjust="spacing" textLength="132.2686" x="595.584" y="2255.7285">GpsTelemetrySource</text><line style="stroke:#181818;stroke-width:0.5;" x1="447.5" x2="843.4365" y1="2266" y2="2266"/><text fill="#000000" font-family="sans-serif" font-size="14" lengthAdjust="spacing" textLength="385.9365" x="452.5" y="2306.1426">#GpsTelemetrySource(TelemetryData* data, QObject* parent)</text><text fill="#000000" font-family="sans-serif" font-size="14" lengthAdjust="spacing" textLength="199.1992" x="452.5" y="2323.752">: QObject(parent), m_data(data)</text><text fill="#000000" font-family="sans-serif" font-size="14" lengthAdjust="spacing" textLength="203.8477" x="452.5" y="2341.3613">#start(const QString&amp; portName)</text><text fill="#000000" font-family="sans-serif" font-size="14" lengthAdjust="spacing" textLength="43.5723" x="452.5" y="2358.9707">#stop()</text><text fill="#000000" font-family="sans-serif" font-size="14" lengthAdjust="spacing" textLength="319.0811" x="452.5" y="2376.5801">#onPositionUpdated(const QGeoPositionInfo &amp;info)</text><line style="stroke:#181818;stroke-width:1;stroke-dasharray:1,2;" x1="447.5" x2="601.8789" y1="2282.8047" y2="2282.8047"/><text fill="#000000" font-family="sans-serif" font-size="14" lengthAdjust="spacing" textLength="87.1787" x="601.8789" y="2288.0332">defined in cpp</text><line style="stroke:#181818;stroke-width:1;stroke-dasharray:1,2;" x1="689.0576" x2="843.4365" y1="2282.8047" y2="2282.8047"/></g><!--class HAPage--><g class="entity" data-qualified-name="HAPage" data-source-line="59" id="ent0006"><rect fill="#F1F1F1" height="96.8281" rx="2.5" ry="2.5" style="stroke:#181818;stroke-width:0.5;" width="860.9414" x="215" y="350.5"/><ellipse cx="615.1484" cy="366.5" fill="#ADD1B2" rx="11" ry="11" style="stroke:#181818;stroke-width:1;"/><path d="M617.9141,362.375 Q618.0703,362.1563 618.2578,362.0469 Q618.4453,361.9375 618.6641,361.9375 Q619.0391,361.9375 619.2734,362.2031 Q619.5078,362.4531 619.5078,363.0625 L619.5078,364.5156 Q619.5078,365.125 619.2734,365.3906 Q619.0391,365.6563 618.6641,365.6563 Q618.3203,365.6563 618.1172,365.4531 Q617.9141,365.2656 617.8047,364.75 Q617.7578,364.3906 617.5703,364.2031 Q617.2422,363.8281 616.6328,363.6094 Q616.0234,363.3906 615.3984,363.3906 Q614.6328,363.3906 613.9922,363.7188 Q613.3672,364.0469 612.8672,364.7969 Q612.3828,365.5469 612.3828,366.5781 L612.3828,367.6719 Q612.3828,368.9063 613.2734,369.7344 Q614.1641,370.5469 615.7578,370.5469 Q616.6953,370.5469 617.3516,370.2969 Q617.7422,370.1406 618.1641,369.7031 Q618.4297,369.4375 618.5703,369.3594 Q618.7266,369.2813 618.9297,369.2813 Q619.2578,369.2813 619.5078,369.5469 Q619.7734,369.7969 619.7734,370.1406 Q619.7734,370.4844 619.4297,370.8906 Q618.9297,371.4688 618.1328,371.7969 Q617.0547,372.25 615.7578,372.25 Q614.2422,372.25 613.0391,371.625 Q612.0547,371.125 611.3672,370.0625 Q610.6797,368.9844 610.6797,367.7031 L610.6797,366.5469 Q610.6797,365.2188 611.2891,364.0781 Q611.9141,362.9219 613.0078,362.3125 Q614.1016,361.6875 615.3359,361.6875 Q616.0703,361.6875 616.7109,361.8594 Q617.3672,362.0156 617.9141,362.375 Z " fill="#000000"/><text fill="#000000" font-family="sans-serif" font-size="14" lengthAdjust="spacing" textLength="52.1445" x="635.6484" y="372.2285">HAPage</text><line style="stroke:#181818;stroke-width:0.5;" x1="216" x2="1074.9414" y1="382.5" y2="382.5"/><text fill="#000000" font-family="sans-serif" font-size="14" lengthAdjust="spacing" textLength="570.4043" x="221" y="422.6426">#HAPage(QWebEngineProfile* profile, QObject* parent) : QWebEnginePage(profile, parent)</text><text fill="#000000" font-family="sans-serif" font-size="14" lengthAdjust="spacing" textLength="848.9414" x="221" y="440.252">#javaScriptConsoleMessage(JavaScriptConsoleMessageLevel level, const QString &amp;message, int lineNumber, const QString &amp;sourceID)</text><line style="stroke:#181818;stroke-width:1;stroke-dasharray:1,2;" x1="216" x2="601.8813" y1="399.3047" y2="399.3047"/><text fill="#000000" font-family="sans-serif" font-size="14" lengthAdjust="spacing" textLength="87.1787" x="601.8813" y="404.5332">defined in cpp</text><line style="stroke:#181818;stroke-width:1;stroke-dasharray:1,2;" x1="689.0601" x2="1074.9414" y1="399.3047" y2="399.3047"/></g><!--class HomeAssistant--><g class="entity" data-qualified-name="HomeAssistant" data-source-line="64" id="ent0007"><rect fill="#F1F1F1" height="96.8281" rx="2.5" ry="2.5" style="stroke:#181818;stroke-width:0.5;" width="341.9023" x="474.5" y="1150.5"/><ellipse cx="594.1289" cy="1166.5" fill="#ADD1B2" rx="11" ry="11" style="stroke:#181818;stroke-width:1;"/><path d="M596.8945,1162.375 Q597.0508,1162.1563 597.2383,1162.0469 Q597.4258,1161.9375 597.6445,1161.9375 Q598.0195,1161.9375 598.2539,1162.2031 Q598.4883,1162.4531 598.4883,1163.0625 L598.4883,1164.5156 Q598.4883,1165.125 598.2539,1165.3906 Q598.0195,1165.6563 597.6445,1165.6563 Q597.3008,1165.6563 597.0977,1165.4531 Q596.8945,1165.2656 596.7852,1164.75 Q596.7383,1164.3906 596.5508,1164.2031 Q596.2227,1163.8281 595.6133,1163.6094 Q595.0039,1163.3906 594.3789,1163.3906 Q593.6133,1163.3906 592.9727,1163.7188 Q592.3477,1164.0469 591.8477,1164.7969 Q591.3633,1165.5469 591.3633,1166.5781 L591.3633,1167.6719 Q591.3633,1168.9063 592.2539,1169.7344 Q593.1445,1170.5469 594.7383,1170.5469 Q595.6758,1170.5469 596.332,1170.2969 Q596.7227,1170.1406 597.1445,1169.7031 Q597.4102,1169.4375 597.5508,1169.3594 Q597.707,1169.2813 597.9102,1169.2813 Q598.2383,1169.2813 598.4883,1169.5469 Q598.7539,1169.7969 598.7539,1170.1406 Q598.7539,1170.4844 598.4102,1170.8906 Q597.9102,1171.4688 597.1133,1171.7969 Q596.0352,1172.25 594.7383,1172.25 Q593.2227,1172.25 592.0195,1171.625 Q591.0352,1171.125 590.3477,1170.0625 Q589.6602,1168.9844 589.6602,1167.7031 L589.6602,1166.5469 Q589.6602,1165.2188 590.2695,1164.0781 Q590.8945,1162.9219 591.9883,1162.3125 Q593.082,1161.6875 594.3164,1161.6875 Q595.0508,1161.6875 595.6914,1161.8594 Q596.3477,1162.0156 596.8945,1162.375 Z " fill="#000000"/><text fill="#000000" font-family="sans-serif" font-size="14" lengthAdjust="spacing" textLength="94.1445" x="614.6289" y="1172.2285">HomeAssistant</text><line style="stroke:#181818;stroke-width:0.5;" x1="475.5" x2="815.4023" y1="1182.5" y2="1182.5"/><text fill="#000000" font-family="sans-serif" font-size="14" lengthAdjust="spacing" textLength="329.9023" x="480.5" y="1222.6426">#HomeAssistant(QWidget* parent) : QWidget(parent)</text><text fill="#000000" font-family="sans-serif" font-size="14" lengthAdjust="spacing" textLength="108.1855" x="480.5" y="1240.252">#openKeyboard()</text><line style="stroke:#181818;stroke-width:1;stroke-dasharray:1,2;" x1="475.5" x2="601.8618" y1="1199.3047" y2="1199.3047"/><text fill="#000000" font-family="sans-serif" font-size="14" lengthAdjust="spacing" textLength="87.1787" x="601.8618" y="1204.5332">defined in cpp</text><line style="stroke:#181818;stroke-width:1;stroke-dasharray:1,2;" x1="689.0405" x2="815.4023" y1="1199.3047" y2="1199.3047"/></g><!--class MainWindow--><g class="entity" data-qualified-name="MainWindow" data-source-line="69" id="ent0008"><rect fill="#F1F1F1" height="308.1406" rx="2.5" ry="2.5" style="stroke:#181818;stroke-width:0.5;" width="416.5508" x="437" y="7"/><ellipse cx="600.9565" cy="23" fill="#ADD1B2" rx="11" ry="11" style="stroke:#181818;stroke-width:1;"/><path d="M603.7222,18.875 Q603.8784,18.6563 604.0659,18.5469 Q604.2534,18.4375 604.4722,18.4375 Q604.8472,18.4375 605.0815,18.7031 Q605.3159,18.9531 605.3159,19.5625 L605.3159,21.0156 Q605.3159,21.625 605.0815,21.8906 Q604.8472,22.1563 604.4722,22.1563 Q604.1284,22.1563 603.9253,21.9531 Q603.7222,21.7656 603.6128,21.25 Q603.5659,20.8906 603.3784,20.7031 Q603.0503,20.3281 602.4409,20.1094 Q601.8315,19.8906 601.2065,19.8906 Q600.4409,19.8906 599.8003,20.2188 Q599.1753,20.5469 598.6753,21.2969 Q598.1909,22.0469 598.1909,23.0781 L598.1909,24.1719 Q598.1909,25.4063 599.0815,26.2344 Q599.9722,27.0469 601.5659,27.0469 Q602.5034,27.0469 603.1597,26.7969 Q603.5503,26.6406 603.9722,26.2031 Q604.2378,25.9375 604.3784,25.8594 Q604.5347,25.7813 604.7378,25.7813 Q605.0659,25.7813 605.3159,26.0469 Q605.5815,26.2969 605.5815,26.6406 Q605.5815,26.9844 605.2378,27.3906 Q604.7378,27.9688 603.9409,28.2969 Q602.8628,28.75 601.5659,28.75 Q600.0503,28.75 598.8472,28.125 Q597.8628,27.625 597.1753,26.5625 Q596.4878,25.4844 596.4878,24.2031 L596.4878,23.0469 Q596.4878,21.7188 597.0972,20.5781 Q597.7222,19.4219 598.8159,18.8125 Q599.9097,18.1875 601.144,18.1875 Q601.8784,18.1875 602.519,18.3594 Q603.1753,18.5156 603.7222,18.875 Z " fill="#000000"/><text fill="#000000" font-family="sans-serif" font-size="14" lengthAdjust="spacing" textLength="80.1377" x="621.4565" y="28.7285">MainWindow</text><line style="stroke:#181818;stroke-width:0.5;" x1="438" x2="852.5508" y1="39" y2="39"/><text fill="#000000" font-family="sans-serif" font-size="14" lengthAdjust="spacing" textLength="367.2402" x="443" y="79.1426">#MainWindow(TelemetryData* telemetry, QWidget* parent)</text><text fill="#000000" font-family="sans-serif" font-size="14" lengthAdjust="spacing" textLength="404.5508" x="443" y="96.752">: QMainWindow(parent), ui(new Ui::MainWindow), m_t(telemetry)</text><text fill="#000000" font-family="sans-serif" font-size="14" lengthAdjust="spacing" textLength="184.3994" x="443" y="114.3613">#widgetToString(QWidget* w)</text><text fill="#000000" font-family="sans-serif" font-size="14" lengthAdjust="spacing" textLength="244.3164" x="443" y="131.9707">#stringToWidget(const QString&amp; name)</text><text fill="#000000" font-family="sans-serif" font-size="14" lengthAdjust="spacing" textLength="106.6064" x="443" y="149.5801">#saveSplitState()</text><text fill="#000000" font-family="sans-serif" font-size="14" lengthAdjust="spacing" textLength="266.9092" x="443" y="167.1895">#displayPages(QWidget* p1, QWidget* p2)</text><text fill="#000000" font-family="sans-serif" font-size="14" lengthAdjust="spacing" textLength="144.7441" x="443" y="184.7988">#toggleSplitAndHome()</text><text fill="#000000" font-family="sans-serif" font-size="14" lengthAdjust="spacing" textLength="59.917" x="443" y="202.4082">#goSplit()</text><text fill="#000000" font-family="sans-serif" font-size="14" lengthAdjust="spacing" textLength="57.5791" x="443" y="220.0176">#goNav()</text><text fill="#000000" font-family="sans-serif" font-size="14" lengthAdjust="spacing" textLength="70.8135" x="443" y="237.627">#goMedia()</text><text fill="#000000" font-family="sans-serif" font-size="14" lengthAdjust="spacing" textLength="62.2412" x="443" y="255.2363">#goCam()</text><text fill="#000000" font-family="sans-serif" font-size="14" lengthAdjust="spacing" textLength="83.2686" x="443" y="272.8457">#goSettings()</text><text fill="#000000" font-family="sans-serif" font-size="14" lengthAdjust="spacing" textLength="126.8271" x="443" y="290.4551">#goHomeAssistant()</text><text fill="#000000" font-family="sans-serif" font-size="14" lengthAdjust="spacing" textLength="159.5371" x="443" y="308.0645">#updateTopBarAndAlert()</text><line style="stroke:#181818;stroke-width:1;stroke-dasharray:1,2;" x1="438" x2="601.686" y1="55.8047" y2="55.8047"/><text fill="#000000" font-family="sans-serif" font-size="14" lengthAdjust="spacing" textLength="87.1787" x="601.686" y="61.0332">defined in cpp</text><line style="stroke:#181818;stroke-width:1;stroke-dasharray:1,2;" x1="688.8647" x2="852.5508" y1="55.8047" y2="55.8047"/></g><!--class MediaPage--><g class="entity" data-qualified-name="MediaPage" data-source-line="86" id="ent0009"><rect fill="#F1F1F1" height="96.8281" rx="2.5" ry="2.5" style="stroke:#181818;stroke-width:0.5;" width="467.9844" x="411.5" y="1282.5"/><ellipse cx="605.8286" cy="1298.5" fill="#ADD1B2" rx="11" ry="11" style="stroke:#181818;stroke-width:1;"/><path d="M608.5942,1294.375 Q608.7505,1294.1563 608.938,1294.0469 Q609.1255,1293.9375 609.3442,1293.9375 Q609.7192,1293.9375 609.9536,1294.2031 Q610.188,1294.4531 610.188,1295.0625 L610.188,1296.5156 Q610.188,1297.125 609.9536,1297.3906 Q609.7192,1297.6563 609.3442,1297.6563 Q609.0005,1297.6563 608.7974,1297.4531 Q608.5942,1297.2656 608.4849,1296.75 Q608.438,1296.3906 608.2505,1296.2031 Q607.9224,1295.8281 607.313,1295.6094 Q606.7036,1295.3906 606.0786,1295.3906 Q605.313,1295.3906 604.6724,1295.7188 Q604.0474,1296.0469 603.5474,1296.7969 Q603.063,1297.5469 603.063,1298.5781 L603.063,1299.6719 Q603.063,1300.9063 603.9536,1301.7344 Q604.8442,1302.5469 606.438,1302.5469 Q607.3755,1302.5469 608.0317,1302.2969 Q608.4224,1302.1406 608.8442,1301.7031 Q609.1099,1301.4375 609.2505,1301.3594 Q609.4067,1301.2813 609.6099,1301.2813 Q609.938,1301.2813 610.188,1301.5469 Q610.4536,1301.7969 610.4536,1302.1406 Q610.4536,1302.4844 610.1099,1302.8906 Q609.6099,1303.4688 608.813,1303.7969 Q607.7349,1304.25 606.438,1304.25 Q604.9224,1304.25 603.7192,1303.625 Q602.7349,1303.125 602.0474,1302.0625 Q601.3599,1300.9844 601.3599,1299.7031 L601.3599,1298.5469 Q601.3599,1297.2188 601.9692,1296.0781 Q602.5942,1294.9219 603.688,1294.3125 Q604.7817,1293.6875 606.0161,1293.6875 Q606.7505,1293.6875 607.3911,1293.8594 Q608.0474,1294.0156 608.5942,1294.375 Z " fill="#000000"/><text fill="#000000" font-family="sans-serif" font-size="14" lengthAdjust="spacing" textLength="70.8271" x="626.3286" y="1304.2285">MediaPage</text><line style="stroke:#181818;stroke-width:0.5;" x1="412.5" x2="878.4844" y1="1314.5" y2="1314.5"/><text fill="#000000" font-family="sans-serif" font-size="14" lengthAdjust="spacing" textLength="455.9844" x="417.5" y="1354.6426">#MediaPage(QWidget *parent) : QWidget(parent), ui(new Ui::MediaPage)</text><text fill="#000000" font-family="sans-serif" font-size="14" lengthAdjust="spacing" textLength="210.0957" x="417.5" y="1372.252">#setCompactMode(bool compact)</text><line style="stroke:#181818;stroke-width:1;stroke-dasharray:1,2;" x1="412.5" x2="601.9028" y1="1331.3047" y2="1331.3047"/><text fill="#000000" font-family="sans-serif" font-size="14" lengthAdjust="spacing" textLength="87.1787" x="601.9028" y="1336.5332">defined in cpp</text><line style="stroke:#181818;stroke-width:1;stroke-dasharray:1,2;" x1="689.0815" x2="878.4844" y1="1331.3047" y2="1331.3047"/></g><!--class Mpu9250Source--><g class="entity" data-qualified-name="Mpu9250Source" data-source-line="91" id="ent0010"><rect fill="#F1F1F1" height="167.2656" rx="2.5" ry="2.5" style="stroke:#181818;stroke-width:0.5;" width="666.4043" x="312.5" y="2419.5"/><ellipse cx="590.0835" cy="2435.5" fill="#ADD1B2" rx="11" ry="11" style="stroke:#181818;stroke-width:1;"/><path d="M592.8491,2431.375 Q593.0054,2431.1563 593.1929,2431.0469 Q593.3804,2430.9375 593.5991,2430.9375 Q593.9741,2430.9375 594.2085,2431.2031 Q594.4429,2431.4531 594.4429,2432.0625 L594.4429,2433.5156 Q594.4429,2434.125 594.2085,2434.3906 Q593.9741,2434.6563 593.5991,2434.6563 Q593.2554,2434.6563 593.0522,2434.4531 Q592.8491,2434.2656 592.7397,2433.75 Q592.6929,2433.3906 592.5054,2433.2031 Q592.1772,2432.8281 591.5679,2432.6094 Q590.9585,2432.3906 590.3335,2432.3906 Q589.5679,2432.3906 588.9272,2432.7188 Q588.3022,2433.0469 587.8022,2433.7969 Q587.3179,2434.5469 587.3179,2435.5781 L587.3179,2436.6719 Q587.3179,2437.9063 588.2085,2438.7344 Q589.0991,2439.5469 590.6929,2439.5469 Q591.6304,2439.5469 592.2866,2439.2969 Q592.6772,2439.1406 593.0991,2438.7031 Q593.3647,2438.4375 593.5054,2438.3594 Q593.6616,2438.2813 593.8647,2438.2813 Q594.1929,2438.2813 594.4429,2438.5469 Q594.7085,2438.7969 594.7085,2439.1406 Q594.7085,2439.4844 594.3647,2439.8906 Q593.8647,2440.4688 593.0679,2440.7969 Q591.9897,2441.25 590.6929,2441.25 Q589.1772,2441.25 587.9741,2440.625 Q586.9897,2440.125 586.3022,2439.0625 Q585.6147,2437.9844 585.6147,2436.7031 L585.6147,2435.5469 Q585.6147,2434.2188 586.2241,2433.0781 Q586.8491,2431.9219 587.9429,2431.3125 Q589.0366,2430.6875 590.271,2430.6875 Q591.0054,2430.6875 591.646,2430.8594 Q592.3022,2431.0156 592.8491,2431.375 Z " fill="#000000"/><text fill="#000000" font-family="sans-serif" font-size="14" lengthAdjust="spacing" textLength="102.7373" x="610.5835" y="2441.2285">Mpu9250Source</text><line style="stroke:#181818;stroke-width:0.5;" x1="313.5" x2="977.9043" y1="2451.5" y2="2451.5"/><text fill="#000000" font-family="sans-serif" font-size="14" lengthAdjust="spacing" textLength="356.4053" x="318.5" y="2491.6426">#Mpu9250Source(TelemetryData* data, QObject* parent)</text><text fill="#000000" font-family="sans-serif" font-size="14" lengthAdjust="spacing" textLength="329.8887" x="318.5" y="2509.252">: QObject(parent), m_data(data), m_fileDescriptor(-1)</text><text fill="#000000" font-family="sans-serif" font-size="14" lengthAdjust="spacing" textLength="44.3379" x="318.5" y="2526.8613">#start()</text><text fill="#000000" font-family="sans-serif" font-size="14" lengthAdjust="spacing" textLength="89.4893" x="318.5" y="2544.4707">#readSensor()</text><text fill="#000000" font-family="sans-serif" font-size="14" lengthAdjust="spacing" textLength="654.4043" x="318.5" y="2562.0801">#madgwickUpdate(float ax, float ay, float az, float gx, float gy, float gz, float mx, float my, float mz, float dt)</text><text fill="#000000" font-family="sans-serif" font-size="14" lengthAdjust="spacing" textLength="43.5723" x="318.5" y="2579.6895">#stop()</text><line style="stroke:#181818;stroke-width:1;stroke-dasharray:1,2;" x1="313.5" x2="602.1128" y1="2468.3047" y2="2468.3047"/><text fill="#000000" font-family="sans-serif" font-size="14" lengthAdjust="spacing" textLength="87.1787" x="602.1128" y="2473.5332">defined in cpp</text><line style="stroke:#181818;stroke-width:1;stroke-dasharray:1,2;" x1="689.2915" x2="977.9043" y1="2468.3047" y2="2468.3047"/></g><!--class NavigationPage--><g class="entity" data-qualified-name="NavigationPage" data-source-line="100" id="ent0011"><rect fill="#F1F1F1" height="237.7031" rx="2.5" ry="2.5" style="stroke:#181818;stroke-width:0.5;" width="470.3564" x="410.5" y="1415"/><ellipse cx="592.0044" cy="1431" fill="#ADD1B2" rx="11" ry="11" style="stroke:#181818;stroke-width:1;"/><path d="M594.77,1426.875 Q594.9263,1426.6563 595.1138,1426.5469 Q595.3013,1426.4375 595.52,1426.4375 Q595.895,1426.4375 596.1294,1426.7031 Q596.3638,1426.9531 596.3638,1427.5625 L596.3638,1429.0156 Q596.3638,1429.625 596.1294,1429.8906 Q595.895,1430.1563 595.52,1430.1563 Q595.1763,1430.1563 594.9731,1429.9531 Q594.77,1429.7656 594.6606,1429.25 Q594.6138,1428.8906 594.4263,1428.7031 Q594.0981,1428.3281 593.4888,1428.1094 Q592.8794,1427.8906 592.2544,1427.8906 Q591.4888,1427.8906 590.8481,1428.2188 Q590.2231,1428.5469 589.7231,1429.2969 Q589.2388,1430.0469 589.2388,1431.0781 L589.2388,1432.1719 Q589.2388,1433.4063 590.1294,1434.2344 Q591.02,1435.0469 592.6138,1435.0469 Q593.5513,1435.0469 594.2075,1434.7969 Q594.5981,1434.6406 595.02,1434.2031 Q595.2856,1433.9375 595.4263,1433.8594 Q595.5825,1433.7813 595.7856,1433.7813 Q596.1138,1433.7813 596.3638,1434.0469 Q596.6294,1434.2969 596.6294,1434.6406 Q596.6294,1434.9844 596.2856,1435.3906 Q595.7856,1435.9688 594.9888,1436.2969 Q593.9106,1436.75 592.6138,1436.75 Q591.0981,1436.75 589.895,1436.125 Q588.9106,1435.625 588.2231,1434.5625 Q587.5356,1433.4844 587.5356,1432.2031 L587.5356,1431.0469 Q587.5356,1429.7188 588.145,1428.5781 Q588.77,1427.4219 589.8638,1426.8125 Q590.9575,1426.1875 592.1919,1426.1875 Q592.9263,1426.1875 593.5669,1426.3594 Q594.2231,1426.5156 594.77,1426.875 Z " fill="#000000"/><text fill="#000000" font-family="sans-serif" font-size="14" lengthAdjust="spacing" textLength="98.8477" x="612.5044" y="1436.7285">NavigationPage</text><line style="stroke:#181818;stroke-width:0.5;" x1="411.5" x2="879.8564" y1="1447" y2="1447"/><text fill="#000000" font-family="sans-serif" font-size="14" lengthAdjust="spacing" textLength="219.4541" x="416.5" y="1487.1426">#NavigationPage(QWidget* parent)</text><text fill="#000000" font-family="sans-serif" font-size="14" lengthAdjust="spacing" textLength="288.6816" x="416.5" y="1504.752">: QWidget(parent), ui(new Ui::NavigationPage)</text><text fill="#000000" font-family="sans-serif" font-size="14" lengthAdjust="spacing" textLength="259.8955" x="416.5" y="1522.3613">#eventFilter(QObject *obj, QEvent *event)</text><text fill="#000000" font-family="sans-serif" font-size="14" lengthAdjust="spacing" textLength="147.8682" x="416.5" y="1539.9707">#openVirtualKeyboard()</text><text fill="#000000" font-family="sans-serif" font-size="14" lengthAdjust="spacing" textLength="368.8809" x="416.5" y="1557.5801">#onSuggestionsReceived(const QString&amp; jsonSuggestions)</text><text fill="#000000" font-family="sans-serif" font-size="14" lengthAdjust="spacing" textLength="458.3564" x="416.5" y="1575.1895">#onRouteInfoReceived(const QString&amp; distance, const QString&amp; duration)</text><text fill="#000000" font-family="sans-serif" font-size="14" lengthAdjust="spacing" textLength="210.8477" x="416.5" y="1592.7988">#bindTelemetry(TelemetryData* t)</text><text fill="#000000" font-family="sans-serif" font-size="14" lengthAdjust="spacing" textLength="315.1504" x="416.5" y="1610.4082">#requestRouteForText(const QString&amp; destination)</text><text fill="#000000" font-family="sans-serif" font-size="14" lengthAdjust="spacing" textLength="316.75" x="416.5" y="1628.0176">#onSuggestionChosen(const QString&amp; suggestion)</text><text fill="#000000" font-family="sans-serif" font-size="14" lengthAdjust="spacing" textLength="178.2061" x="416.5" y="1645.627">#triggerSuggestionsSearch()</text><line style="stroke:#181818;stroke-width:1;stroke-dasharray:1,2;" x1="411.5" x2="602.0889" y1="1463.8047" y2="1463.8047"/><text fill="#000000" font-family="sans-serif" font-size="14" lengthAdjust="spacing" textLength="87.1787" x="602.0889" y="1469.0332">defined in cpp</text><line style="stroke:#181818;stroke-width:1;stroke-dasharray:1,2;" x1="689.2676" x2="879.8564" y1="1463.8047" y2="1463.8047"/></g><!--class SettingsPage--><g class="entity" data-qualified-name="SettingsPage" data-source-line="113" id="ent0012"><rect fill="#F1F1F1" height="220.0938" rx="2.5" ry="2.5" style="stroke:#181818;stroke-width:0.5;" width="533.3291" x="379" y="1688"/><ellipse cx="599.7734" cy="1704" fill="#ADD1B2" rx="11" ry="11" style="stroke:#181818;stroke-width:1;"/><path d="M602.5391,1699.875 Q602.6953,1699.6563 602.8828,1699.5469 Q603.0703,1699.4375 603.2891,1699.4375 Q603.6641,1699.4375 603.8984,1699.7031 Q604.1328,1699.9531 604.1328,1700.5625 L604.1328,1702.0156 Q604.1328,1702.625 603.8984,1702.8906 Q603.6641,1703.1563 603.2891,1703.1563 Q602.9453,1703.1563 602.7422,1702.9531 Q602.5391,1702.7656 602.4297,1702.25 Q602.3828,1701.8906 602.1953,1701.7031 Q601.8672,1701.3281 601.2578,1701.1094 Q600.6484,1700.8906 600.0234,1700.8906 Q599.2578,1700.8906 598.6172,1701.2188 Q597.9922,1701.5469 597.4922,1702.2969 Q597.0078,1703.0469 597.0078,1704.0781 L597.0078,1705.1719 Q597.0078,1706.4063 597.8984,1707.2344 Q598.7891,1708.0469 600.3828,1708.0469 Q601.3203,1708.0469 601.9766,1707.7969 Q602.3672,1707.6406 602.7891,1707.2031 Q603.0547,1706.9375 603.1953,1706.8594 Q603.3516,1706.7813 603.5547,1706.7813 Q603.8828,1706.7813 604.1328,1707.0469 Q604.3984,1707.2969 604.3984,1707.6406 Q604.3984,1707.9844 604.0547,1708.3906 Q603.5547,1708.9688 602.7578,1709.2969 Q601.6797,1709.75 600.3828,1709.75 Q598.8672,1709.75 597.6641,1709.125 Q596.6797,1708.625 595.9922,1707.5625 Q595.3047,1706.4844 595.3047,1705.2031 L595.3047,1704.0469 Q595.3047,1702.7188 595.9141,1701.5781 Q596.5391,1700.4219 597.6328,1699.8125 Q598.7266,1699.1875 599.9609,1699.1875 Q600.6953,1699.1875 601.3359,1699.3594 Q601.9922,1699.5156 602.5391,1699.875 Z " fill="#000000"/><text fill="#000000" font-family="sans-serif" font-size="14" lengthAdjust="spacing" textLength="83.2822" x="620.2734" y="1709.7285">SettingsPage</text><line style="stroke:#181818;stroke-width:0.5;" x1="380" x2="911.3291" y1="1720" y2="1720"/><text fill="#000000" font-family="sans-serif" font-size="14" lengthAdjust="spacing" textLength="203.8887" x="385" y="1760.1426">#SettingsPage(QWidget* parent)</text><text fill="#000000" font-family="sans-serif" font-size="14" lengthAdjust="spacing" textLength="273.1162" x="385" y="1777.752">: QWidget(parent), ui(new Ui::SettingsPage)</text><text fill="#000000" font-family="sans-serif" font-size="14" lengthAdjust="spacing" textLength="521.3291" x="385" y="1795.3613">#showAutoClosingMessage(const QString &amp;title, const QString &amp;text, int timeoutMs)</text><text fill="#000000" font-family="sans-serif" font-size="14" lengthAdjust="spacing" textLength="122.9375" x="385" y="1812.9707">#refreshPairedList()</text><text fill="#000000" font-family="sans-serif" font-size="14" lengthAdjust="spacing" textLength="119.8271" x="385" y="1830.5801">#onVisibleClicked()</text><text fill="#000000" font-family="sans-serif" font-size="14" lengthAdjust="spacing" textLength="189.1094" x="385" y="1848.1895">#setDiscoverable(bool enable)</text><text fill="#000000" font-family="sans-serif" font-size="14" lengthAdjust="spacing" textLength="105.0273" x="385" y="1865.7988">#stopDiscovery()</text><text fill="#000000" font-family="sans-serif" font-size="14" lengthAdjust="spacing" textLength="119.0479" x="385" y="1883.4082">#onForgetClicked()</text><text fill="#000000" font-family="sans-serif" font-size="14" lengthAdjust="spacing" textLength="322.8887" x="385" y="1901.0176">#errorOccurred(QBluetoothLocalDevice::Error error)</text><line style="stroke:#181818;stroke-width:1;stroke-dasharray:1,2;" x1="380" x2="602.0752" y1="1736.8047" y2="1736.8047"/><text fill="#000000" font-family="sans-serif" font-size="14" lengthAdjust="spacing" textLength="87.1787" x="602.0752" y="1742.0332">defined in cpp</text><line style="stroke:#181818;stroke-width:1;stroke-dasharray:1,2;" x1="689.2539" x2="911.3291" y1="1736.8047" y2="1736.8047"/></g><!--class TelemetryData--><g class="entity" data-qualified-name="TelemetryData" data-source-line="125" id="ent0013"><rect fill="#F1F1F1" height="202.4844" rx="2.5" ry="2.5" style="stroke:#181818;stroke-width:0.5;" width="333.3438" x="479" y="2622"/><ellipse cx="595.5186" cy="2638" fill="#ADD1B2" rx="11" ry="11" style="stroke:#181818;stroke-width:1;"/><path d="M598.2842,2633.875 Q598.4404,2633.6563 598.6279,2633.5469 Q598.8154,2633.4375 599.0342,2633.4375 Q599.4092,2633.4375 599.6436,2633.7031 Q599.8779,2633.9531 599.8779,2634.5625 L599.8779,2636.0156 Q599.8779,2636.625 599.6436,2636.8906 Q599.4092,2637.1563 599.0342,2637.1563 Q598.6904,2637.1563 598.4873,2636.9531 Q598.2842,2636.7656 598.1748,2636.25 Q598.1279,2635.8906 597.9404,2635.7031 Q597.6123,2635.3281 597.0029,2635.1094 Q596.3936,2634.8906 595.7686,2634.8906 Q595.0029,2634.8906 594.3623,2635.2188 Q593.7373,2635.5469 593.2373,2636.2969 Q592.7529,2637.0469 592.7529,2638.0781 L592.7529,2639.1719 Q592.7529,2640.4063 593.6436,2641.2344 Q594.5342,2642.0469 596.1279,2642.0469 Q597.0654,2642.0469 597.7217,2641.7969 Q598.1123,2641.6406 598.5342,2641.2031 Q598.7998,2640.9375 598.9404,2640.8594 Q599.0967,2640.7813 599.2998,2640.7813 Q599.6279,2640.7813 599.8779,2641.0469 Q600.1436,2641.2969 600.1436,2641.6406 Q600.1436,2641.9844 599.7998,2642.3906 Q599.2998,2642.9688 598.5029,2643.2969 Q597.4248,2643.75 596.1279,2643.75 Q594.6123,2643.75 593.4092,2643.125 Q592.4248,2642.625 591.7373,2641.5625 Q591.0498,2640.4844 591.0498,2639.2031 L591.0498,2638.0469 Q591.0498,2636.7188 591.6592,2635.5781 Q592.2842,2634.4219 593.3779,2633.8125 Q594.4717,2633.1875 595.7061,2633.1875 Q596.4404,2633.1875 597.0811,2633.3594 Q597.7373,2633.5156 598.2842,2633.875 Z " fill="#000000"/><text fill="#000000" font-family="sans-serif" font-size="14" lengthAdjust="spacing" textLength="91.8066" x="616.0186" y="2643.7285">TelemetryData</text><line style="stroke:#181818;stroke-width:0.5;" x1="480" x2="811.3438" y1="2654" y2="2654"/><text fill="#000000" font-family="sans-serif" font-size="14" lengthAdjust="spacing" textLength="321.3438" x="485" y="2694.1426">#TelemetryData(QObject* parent) : QObject(parent)</text><text fill="#000000" font-family="sans-serif" font-size="14" lengthAdjust="spacing" textLength="157.9854" x="485" y="2711.752">#setSpeedKmh(double v)</text><text fill="#000000" font-family="sans-serif" font-size="14" lengthAdjust="spacing" textLength="116.71" x="485" y="2729.3613">#setGpsOk(bool v)</text><text fill="#000000" font-family="sans-serif" font-size="14" lengthAdjust="spacing" textLength="108.1787" x="485" y="2746.9707">#setLat(double v)</text><text fill="#000000" font-family="sans-serif" font-size="14" lengthAdjust="spacing" textLength="112.0752" x="485" y="2764.5801">#setLon(double v)</text><text fill="#000000" font-family="sans-serif" font-size="14" lengthAdjust="spacing" textLength="140.8682" x="485" y="2782.1895">#setHeading(double v)</text><text fill="#000000" font-family="sans-serif" font-size="14" lengthAdjust="spacing" textLength="196.8408" x="485" y="2799.7988">#setAlertText(const QString&amp; v)</text><text fill="#000000" font-family="sans-serif" font-size="14" lengthAdjust="spacing" textLength="123.7168" x="485" y="2817.4082">#setAlertLevel(int v)</text><line style="stroke:#181818;stroke-width:1;stroke-dasharray:1,2;" x1="480" x2="602.0825" y1="2670.8047" y2="2670.8047"/><text fill="#000000" font-family="sans-serif" font-size="14" lengthAdjust="spacing" textLength="87.1787" x="602.0825" y="2676.0332">defined in cpp</text><line style="stroke:#181818;stroke-width:1;stroke-dasharray:1,2;" x1="689.2612" x2="811.3438" y1="2670.8047" y2="2670.8047"/></g><!--class QObject--><g class="entity" data-qualified-name="QObject" data-source-line="136" id="ent0014"><rect fill="#F1F1F1" height="58.7031" rx="2.5" ry="2.5" style="stroke:#181818;stroke-width:0.5;" width="84.0391" x="39" y="2376.5"/><ellipse cx="54" cy="2397.8516" fill="#ADD1B2" rx="11" ry="11" style="stroke:#181818;stroke-width:1;"/><path d="M56.7656,2393.7266 Q56.9219,2393.5078 57.1094,2393.3984 Q57.2969,2393.2891 57.5156,2393.2891 Q57.8906,2393.2891 58.125,2393.5547 Q58.3594,2393.8047 58.3594,2394.4141 L58.3594,2395.8672 Q58.3594,2396.4766 58.125,2396.7422 Q57.8906,2397.0078 57.5156,2397.0078 Q57.1719,2397.0078 56.9688,2396.8047 Q56.7656,2396.6172 56.6563,2396.1016 Q56.6094,2395.7422 56.4219,2395.5547 Q56.0938,2395.1797 55.4844,2394.9609 Q54.875,2394.7422 54.25,2394.7422 Q53.4844,2394.7422 52.8438,2395.0703 Q52.2188,2395.3984 51.7188,2396.1484 Q51.2344,2396.8984 51.2344,2397.9297 L51.2344,2399.0234 Q51.2344,2400.2578 52.125,2401.0859 Q53.0156,2401.8984 54.6094,2401.8984 Q55.5469,2401.8984 56.2031,2401.6484 Q56.5938,2401.4922 57.0156,2401.0547 Q57.2813,2400.7891 57.4219,2400.7109 Q57.5781,2400.6328 57.7813,2400.6328 Q58.1094,2400.6328 58.3594,2400.8984 Q58.625,2401.1484 58.625,2401.4922 Q58.625,2401.8359 58.2813,2402.2422 Q57.7813,2402.8203 56.9844,2403.1484 Q55.9063,2403.6016 54.6094,2403.6016 Q53.0938,2403.6016 51.8906,2402.9766 Q50.9063,2402.4766 50.2188,2401.4141 Q49.5313,2400.3359 49.5313,2399.0547 L49.5313,2397.8984 Q49.5313,2396.5703 50.1406,2395.4297 Q50.7656,2394.2734 51.8594,2393.6641 Q52.9531,2393.0391 54.1875,2393.0391 Q54.9219,2393.0391 55.5625,2393.2109 Q56.2188,2393.3672 56.7656,2393.7266 Z " fill="#000000"/><text fill="#000000" font-family="sans-serif" font-size="12" font-style="italic" lengthAdjust="spacing" textLength="56.0391" x="66" y="2393.957">&#171;external&#187;</text><text fill="#000000" font-family="sans-serif" font-size="14" lengthAdjust="spacing" textLength="51.3516" x="68.3438" y="2411.127">QObject</text><line style="stroke:#181818;stroke-width:0.5;" x1="40" x2="122.0391" y1="2419.2031" y2="2419.2031"/><line style="stroke:#181818;stroke-width:0.5;" x1="40" x2="122.0391" y1="2427.2031" y2="2427.2031"/></g><!--class QWidget--><g class="entity" data-qualified-name="QWidget" data-source-line="138" id="ent0016"><rect fill="#F1F1F1" height="58.7031" rx="2.5" ry="2.5" style="stroke:#181818;stroke-width:0.5;" width="86.4619" x="38" y="1301.5"/><ellipse cx="53" cy="1322.8516" fill="#ADD1B2" rx="11" ry="11" style="stroke:#181818;stroke-width:1;"/><path d="M55.7656,1318.7266 Q55.9219,1318.5078 56.1094,1318.3984 Q56.2969,1318.2891 56.5156,1318.2891 Q56.8906,1318.2891 57.125,1318.5547 Q57.3594,1318.8047 57.3594,1319.4141 L57.3594,1320.8672 Q57.3594,1321.4766 57.125,1321.7422 Q56.8906,1322.0078 56.5156,1322.0078 Q56.1719,1322.0078 55.9688,1321.8047 Q55.7656,1321.6172 55.6563,1321.1016 Q55.6094,1320.7422 55.4219,1320.5547 Q55.0938,1320.1797 54.4844,1319.9609 Q53.875,1319.7422 53.25,1319.7422 Q52.4844,1319.7422 51.8438,1320.0703 Q51.2188,1320.3984 50.7188,1321.1484 Q50.2344,1321.8984 50.2344,1322.9297 L50.2344,1324.0234 Q50.2344,1325.2578 51.125,1326.0859 Q52.0156,1326.8984 53.6094,1326.8984 Q54.5469,1326.8984 55.2031,1326.6484 Q55.5938,1326.4922 56.0156,1326.0547 Q56.2813,1325.7891 56.4219,1325.7109 Q56.5781,1325.6328 56.7813,1325.6328 Q57.1094,1325.6328 57.3594,1325.8984 Q57.625,1326.1484 57.625,1326.4922 Q57.625,1326.8359 57.2813,1327.2422 Q56.7813,1327.8203 55.9844,1328.1484 Q54.9063,1328.6016 53.6094,1328.6016 Q52.0938,1328.6016 50.8906,1327.9766 Q49.9063,1327.4766 49.2188,1326.4141 Q48.5313,1325.3359 48.5313,1324.0547 L48.5313,1322.8984 Q48.5313,1321.5703 49.1406,1320.4297 Q49.7656,1319.2734 50.8594,1318.6641 Q51.9531,1318.0391 53.1875,1318.0391 Q53.9219,1318.0391 54.5625,1318.2109 Q55.2188,1318.3672 55.7656,1318.7266 Z " fill="#000000"/><text fill="#000000" font-family="sans-serif" font-size="12" font-style="italic" lengthAdjust="spacing" textLength="56.0391" x="66.2114" y="1318.957">&#171;external&#187;</text><text fill="#000000" font-family="sans-serif" font-size="14" lengthAdjust="spacing" textLength="54.4619" x="67" y="1336.127">QWidget</text><line style="stroke:#181818;stroke-width:0.5;" x1="39" x2="123.4619" y1="1344.2031" y2="1344.2031"/><line style="stroke:#181818;stroke-width:0.5;" x1="39" x2="123.4619" y1="1352.2031" y2="1352.2031"/></g><!--class QDialog--><g class="entity" data-qualified-name="QDialog" data-source-line="140" id="ent0018"><rect fill="#F1F1F1" height="58.7031" rx="2.5" ry="2.5" style="stroke:#181818;stroke-width:0.5;" width="84.0391" x="39" y="668.5"/><ellipse cx="54" cy="689.8516" fill="#ADD1B2" rx="11" ry="11" style="stroke:#181818;stroke-width:1;"/><path d="M56.7656,685.7266 Q56.9219,685.5078 57.1094,685.3984 Q57.2969,685.2891 57.5156,685.2891 Q57.8906,685.2891 58.125,685.5547 Q58.3594,685.8047 58.3594,686.4141 L58.3594,687.8672 Q58.3594,688.4766 58.125,688.7422 Q57.8906,689.0078 57.5156,689.0078 Q57.1719,689.0078 56.9688,688.8047 Q56.7656,688.6172 56.6563,688.1016 Q56.6094,687.7422 56.4219,687.5547 Q56.0938,687.1797 55.4844,686.9609 Q54.875,686.7422 54.25,686.7422 Q53.4844,686.7422 52.8438,687.0703 Q52.2188,687.3984 51.7188,688.1484 Q51.2344,688.8984 51.2344,689.9297 L51.2344,691.0234 Q51.2344,692.2578 52.125,693.0859 Q53.0156,693.8984 54.6094,693.8984 Q55.5469,693.8984 56.2031,693.6484 Q56.5938,693.4922 57.0156,693.0547 Q57.2813,692.7891 57.4219,692.7109 Q57.5781,692.6328 57.7813,692.6328 Q58.1094,692.6328 58.3594,692.8984 Q58.625,693.1484 58.625,693.4922 Q58.625,693.8359 58.2813,694.2422 Q57.7813,694.8203 56.9844,695.1484 Q55.9063,695.6016 54.6094,695.6016 Q53.0938,695.6016 51.8906,694.9766 Q50.9063,694.4766 50.2188,693.4141 Q49.5313,692.3359 49.5313,691.0547 L49.5313,689.8984 Q49.5313,688.5703 50.1406,687.4297 Q50.7656,686.2734 51.8594,685.6641 Q52.9531,685.0391 54.1875,685.0391 Q54.9219,685.0391 55.5625,685.2109 Q56.2188,685.3672 56.7656,685.7266 Z " fill="#000000"/><text fill="#000000" font-family="sans-serif" font-size="12" font-style="italic" lengthAdjust="spacing" textLength="56.0391" x="66" y="685.957">&#171;external&#187;</text><text fill="#000000" font-family="sans-serif" font-size="14" lengthAdjust="spacing" textLength="50.5791" x="68.73" y="703.127">QDialog</text><line style="stroke:#181818;stroke-width:0.5;" x1="40" x2="122.0391" y1="711.2031" y2="711.2031"/><line style="stroke:#181818;stroke-width:0.5;" x1="40" x2="122.0391" y1="719.2031" y2="719.2031"/></g><!--class QWebEnginePage--><g class="entity" data-qualified-name="QWebEnginePage" data-source-line="144" id="ent0021"><rect fill="#F1F1F1" height="58.7031" rx="2.5" ry="2.5" style="stroke:#181818;stroke-width:0.5;" width="147.9648" x="7" y="369.5"/><ellipse cx="22" cy="390.8516" fill="#ADD1B2" rx="11" ry="11" style="stroke:#181818;stroke-width:1;"/><path d="M24.7656,386.7266 Q24.9219,386.5078 25.1094,386.3984 Q25.2969,386.2891 25.5156,386.2891 Q25.8906,386.2891 26.125,386.5547 Q26.3594,386.8047 26.3594,387.4141 L26.3594,388.8672 Q26.3594,389.4766 26.125,389.7422 Q25.8906,390.0078 25.5156,390.0078 Q25.1719,390.0078 24.9688,389.8047 Q24.7656,389.6172 24.6563,389.1016 Q24.6094,388.7422 24.4219,388.5547 Q24.0938,388.1797 23.4844,387.9609 Q22.875,387.7422 22.25,387.7422 Q21.4844,387.7422 20.8438,388.0703 Q20.2188,388.3984 19.7188,389.1484 Q19.2344,389.8984 19.2344,390.9297 L19.2344,392.0234 Q19.2344,393.2578 20.125,394.0859 Q21.0156,394.8984 22.6094,394.8984 Q23.5469,394.8984 24.2031,394.6484 Q24.5938,394.4922 25.0156,394.0547 Q25.2813,393.7891 25.4219,393.7109 Q25.5781,393.6328 25.7813,393.6328 Q26.1094,393.6328 26.3594,393.8984 Q26.625,394.1484 26.625,394.4922 Q26.625,394.8359 26.2813,395.2422 Q25.7813,395.8203 24.9844,396.1484 Q23.9063,396.6016 22.6094,396.6016 Q21.0938,396.6016 19.8906,395.9766 Q18.9063,395.4766 18.2188,394.4141 Q17.5313,393.3359 17.5313,392.0547 L17.5313,390.8984 Q17.5313,389.5703 18.1406,388.4297 Q18.7656,387.2734 19.8594,386.6641 Q20.9531,386.0391 22.1875,386.0391 Q22.9219,386.0391 23.5625,386.2109 Q24.2188,386.3672 24.7656,386.7266 Z " fill="#000000"/><text fill="#000000" font-family="sans-serif" font-size="12" font-style="italic" lengthAdjust="spacing" textLength="56.0391" x="65.9629" y="386.957">&#171;external&#187;</text><text fill="#000000" font-family="sans-serif" font-size="14" lengthAdjust="spacing" textLength="115.9648" x="36" y="404.127">QWebEnginePage</text><line style="stroke:#181818;stroke-width:0.5;" x1="8" x2="153.9648" y1="412.2031" y2="412.2031"/><line style="stroke:#181818;stroke-width:0.5;" x1="8" x2="153.9648" y1="420.2031" y2="420.2031"/></g><!--class QMainWindow--><g class="entity" data-qualified-name="QMainWindow" data-source-line="148" id="ent0024"><rect fill="#F1F1F1" height="58.7031" rx="2.5" ry="2.5" style="stroke:#181818;stroke-width:0.5;" width="123.0273" x="19.5" y="131.5"/><ellipse cx="34.5" cy="152.8516" fill="#ADD1B2" rx="11" ry="11" style="stroke:#181818;stroke-width:1;"/><path d="M37.2656,148.7266 Q37.4219,148.5078 37.6094,148.3984 Q37.7969,148.2891 38.0156,148.2891 Q38.3906,148.2891 38.625,148.5547 Q38.8594,148.8047 38.8594,149.4141 L38.8594,150.8672 Q38.8594,151.4766 38.625,151.7422 Q38.3906,152.0078 38.0156,152.0078 Q37.6719,152.0078 37.4688,151.8047 Q37.2656,151.6172 37.1563,151.1016 Q37.1094,150.7422 36.9219,150.5547 Q36.5938,150.1797 35.9844,149.9609 Q35.375,149.7422 34.75,149.7422 Q33.9844,149.7422 33.3438,150.0703 Q32.7188,150.3984 32.2188,151.1484 Q31.7344,151.8984 31.7344,152.9297 L31.7344,154.0234 Q31.7344,155.2578 32.625,156.0859 Q33.5156,156.8984 35.1094,156.8984 Q36.0469,156.8984 36.7031,156.6484 Q37.0938,156.4922 37.5156,156.0547 Q37.7813,155.7891 37.9219,155.7109 Q38.0781,155.6328 38.2813,155.6328 Q38.6094,155.6328 38.8594,155.8984 Q39.125,156.1484 39.125,156.4922 Q39.125,156.8359 38.7813,157.2422 Q38.2813,157.8203 37.4844,158.1484 Q36.4063,158.6016 35.1094,158.6016 Q33.5938,158.6016 32.3906,157.9766 Q31.4063,157.4766 30.7188,156.4141 Q30.0313,155.3359 30.0313,154.0547 L30.0313,152.8984 Q30.0313,151.5703 30.6406,150.4297 Q31.2656,149.2734 32.3594,148.6641 Q33.4531,148.0391 34.6875,148.0391 Q35.4219,148.0391 36.0625,148.2109 Q36.7188,148.3672 37.2656,148.7266 Z " fill="#000000"/><text fill="#000000" font-family="sans-serif" font-size="12" font-style="italic" lengthAdjust="spacing" textLength="56.0391" x="65.9941" y="148.957">&#171;external&#187;</text><text fill="#000000" font-family="sans-serif" font-size="14" lengthAdjust="spacing" textLength="91.0273" x="48.5" y="166.127">QMainWindow</text><line style="stroke:#181818;stroke-width:0.5;" x1="20.5" x2="141.5273" y1="174.2031" y2="174.2031"/><line style="stroke:#181818;stroke-width:0.5;" x1="20.5" x2="141.5273" y1="182.2031" y2="182.2031"/></g><!--reverse link QObject to BluetoothManager--><g class="link" data-entity-1="ent0014" data-entity-2="ent0002" data-link-type="extension" data-source-line="137" id="lnk15"><path codeLine="137" d="M103.3102,2360.1415 C123.5202,2318.7015 157.67,2259.92 215,2217 C288.76,2161.78 384.82,2126.54 467.38,2104.55" fill="none" id="QObject-backto-BluetoothManager" style="stroke:#181818;stroke-width:1;"/><polygon fill="none" points="95.42,2376.32,108.703,2362.7715,97.9173,2357.5114,95.42,2376.32" style="stroke:#181818;stroke-width:1;"/></g><!--reverse link QWidget to CameraPage--><g class="link" data-entity-1="ent0016" data-entity-2="ent0003" data-link-type="extension" data-source-line="139" id="lnk17"><path codeLine="139" d="M100.5636,1284.7511 C119.2036,1240.8411 153.19,1175.76 215,1133 C311.07,1066.55 445.1,1043.43 537.76,1035.59" fill="none" id="QWidget-backto-CameraPage" style="stroke:#181818;stroke-width:1;"/><polygon fill="none" points="93.53,1301.32,106.0865,1287.0956,95.0406,1282.4066,93.53,1301.32" style="stroke:#181818;stroke-width:1;"/></g><!--reverse link QDialog to Clavier--><g class="link" data-entity-1="ent0018" data-entity-2="ent0004" data-link-type="extension" data-source-line="141" id="lnk19"><path codeLine="141" d="M141.36,698 C193.06,698 268.14,698 361.48,698" fill="none" id="QDialog-backto-Clavier" style="stroke:#181818;stroke-width:1;"/><polygon fill="none" points="123.36,698,141.36,704,141.36,692,123.36,698" style="stroke:#181818;stroke-width:1;"/></g><!--reverse link QObject to GpsTelemetrySource--><g class="link" data-entity-1="ent0014" data-entity-2="ent0005" data-link-type="extension" data-source-line="143" id="lnk20"><path codeLine="143" d="M141.0981,2395.8108 C208.6481,2384.1608 329.14,2363.38 446.26,2343.19" fill="none" id="QObject-backto-GpsTelemetrySource" style="stroke:#181818;stroke-width:1;"/><polygon fill="none" points="123.36,2398.87,142.1179,2401.7235,140.0784,2389.8981,123.36,2398.87" style="stroke:#181818;stroke-width:1;"/></g><!--reverse link QWebEnginePage to HAPage--><g class="link" data-entity-1="ent0021" data-entity-2="ent0006" data-link-type="extension" data-source-line="145" id="lnk22"><path codeLine="145" d="M173.25,399 C190.88,399 192.98,399 214.74,399" fill="none" id="QWebEnginePage-backto-HAPage" style="stroke:#181818;stroke-width:1;"/><polygon fill="none" points="155.25,399,173.25,405,173.25,393,155.25,399" style="stroke:#181818;stroke-width:1;"/></g><!--reverse link QWidget to HomeAssistant--><g class="link" data-entity-1="ent0016" data-entity-2="ent0007" data-link-type="extension" data-source-line="147" id="lnk23"><path codeLine="147" d="M139.7656,1297.2378 C165.2556,1283.1178 183.18,1275.07 215,1265 C298.43,1238.59 394.44,1222.56 474.5,1212.93" fill="none" id="QWidget-backto-HomeAssistant" style="stroke:#181818;stroke-width:1;"/><polygon fill="none" points="124.02,1305.96,142.673,1302.4864,136.8582,1291.9893,124.02,1305.96" style="stroke:#181818;stroke-width:1;"/></g><!--reverse link QMainWindow to MainWindow--><g class="link" data-entity-1="ent0024" data-entity-2="ent0008" data-link-type="extension" data-source-line="149" id="lnk25"><path codeLine="149" d="M160.73,161 C230.9,161 332.14,161 436.78,161" fill="none" id="QMainWindow-backto-MainWindow" style="stroke:#181818;stroke-width:1;"/><polygon fill="none" points="142.73,161,160.73,167,160.73,155,142.73,161" style="stroke:#181818;stroke-width:1;"/></g><!--reverse link QWidget to MediaPage--><g class="link" data-entity-1="ent0016" data-entity-2="ent0009" data-link-type="extension" data-source-line="151" id="lnk26"><path codeLine="151" d="M142.28,1331 C203.47,1331 303.25,1331 411.28,1331" fill="none" id="QWidget-backto-MediaPage" style="stroke:#181818;stroke-width:1;"/><polygon fill="none" points="124.28,1331,142.28,1337,142.28,1325,124.28,1331" style="stroke:#181818;stroke-width:1;"/></g><!--reverse link QObject to Mpu9250Source--><g class="link" data-entity-1="ent0014" data-entity-2="ent0010" data-link-type="extension" data-source-line="153" id="lnk27"><path codeLine="153" d="M141.0981,2416.1892 C183.6581,2423.5292 236.54,2432.65 312.25,2445.71" fill="none" id="QObject-backto-Mpu9250Source" style="stroke:#181818;stroke-width:1;"/><polygon fill="none" points="123.36,2413.13,140.0784,2422.1019,142.1179,2410.2764,123.36,2413.13" style="stroke:#181818;stroke-width:1;"/></g><!--reverse link QWidget to NavigationPage--><g class="link" data-entity-1="ent0016" data-entity-2="ent0011" data-link-type="extension" data-source-line="155" id="lnk28"><path codeLine="155" d="M140.0084,1362.2946 C165.8084,1375.8346 183.82,1384.38 215,1397 C277.39,1422.26 346.33,1446.01 410.38,1466.41" fill="none" id="QWidget-backto-NavigationPage" style="stroke:#181818;stroke-width:1;"/><polygon fill="none" points="124.07,1353.93,137.2202,1367.6074,142.7966,1356.9818,124.07,1353.93" style="stroke:#181818;stroke-width:1;"/></g><!--reverse link QWidget to SettingsPage--><g class="link" data-entity-1="ent0016" data-entity-2="ent0012" data-link-type="extension" data-source-line="157" id="lnk29"><path codeLine="157" d="M87.1696,1378.7439 C95.3196,1444.6339 121.85,1585.48 215,1671 C260.61,1712.87 319.4,1740.98 378.75,1759.84" fill="none" id="QWidget-backto-SettingsPage" style="stroke:#181818;stroke-width:1;"/><polygon fill="none" points="84.96,1360.88,81.215,1379.4804,93.1242,1378.0073,84.96,1360.88" style="stroke:#181818;stroke-width:1;"/></g><!--reverse link QObject to TelemetryData--><g class="link" data-entity-1="ent0014" data-entity-2="ent0013" data-link-type="extension" data-source-line="159" id="lnk30"><path codeLine="159" d="M101.0891,2452.242 C120.0791,2495.832 154.21,2560.16 215,2604 C291.96,2659.5 393.73,2689.13 478.9,2704.95" fill="none" id="QObject-backto-TelemetryData" style="stroke:#181818;stroke-width:1;"/><polygon fill="none" points="93.9,2435.74,95.5884,2454.6384,106.5898,2449.8456,93.9,2435.74" style="stroke:#181818;stroke-width:1;"/></g><?plantuml-src hHTTRzisy3s_Wi20G0lIeYsmXmL50SVkrngtJfMqZmCjdMKc5AcHb5stst_VaH8fKavZOzYBBTuNx_kE75Q664aKgzQ6b4n1OPWK9_gUYOOgMfE2KwqdnYYsR0syBwJ8sNSWpo8IlQQbt39HaHNb6auS2xdaBHWfpNfE1Qr0aHydX3nzIafOCG4bOO8KJOCG1F-oHvrTVrhUeJBa3Ey0ONub5wG7PJt4yQ6iSe8wRs31wGxvEZ2gAP3qHkQWDgo0307QaEiSxK0zJtK7_aXhw1ZML9GSPfUjpbabAFSC5Z87hL4dSbhhggDkcv8Qc8EX-4-p66ZLMDBYFZVKj3f5ISsiTtiWcg63Z3bj_9LVg69K68JWZJswup2oghYxeHSXu9lnqXHic7Gt_jD7O8hMARgmgZ_g-u4kk_xAoWe6hoEUMCztu2o6dfEMPGAsv9PTN0mYEcsqeSgWiu7McOV89W4qIXRes0M84aCoGoChJAP4Vqutx53Yz4HxcbkjPunoMNcjpqbDxrfTj1owZCcCQW71JEUxUYdvN9QGkHIES-AoDIR4h0GE1gPhwXDjGpcpiRqP8j55AL-pbKd2_m5sFXzeMUODnRGCnrjHWjA5L1wcjymKQ-HPIghA17X5TxBTa-te4fGBmfKKrKAXewCuZ66TeNkKQxcT50MwRY6Rjick5wrUTzuu8qiZEYeci9PCHnVVEtEUmj-Gh14uqYK1S4dBMrjhxnZYbETyYh7sIV6sqJV8WeMXThbiLN4WkVVfit2sINT6R7sT--PoHaQPd_OSpA4_NSaFHUdCIllBAMcaCaDpiNRsfaZXky2j2rpfET-2z9ZtOYN9ASFVeHRUJGxNSKU3bG3Brw92WeMIAyRXpDQQ_TYtqjLs8BVSWJJkidTqG_D2iSPCKLl9eM-9sHy_GLp11ZZXzlUSZ7fltP5WtGb3EDxxiQsNeFRej8lM-rda15d3H6lC3UoF1tmHa_hca9ezRcaOd0P4L77-sZbbuYlE6Rbz_Cw1RfnYnX_FoLWLdsSHSyYrgC4EQ9U39WiYEzMtJYhEE-UymU2jpq0Blf6zqQDi5KEcqWta3MV6ZYzVbINJ3PQnJGyTkV9vRCoBfFTP2HDHsY3qCYhfWE7qaMx2znnAHiDf6YO4ye0ngA4EW3IiSGUyaSqbLNZfX6C_YgDdfHykda3su2H9aoMDZ6ViFGXO2ZKsT-F6oL9AZedj095EJVlxYz-U7TE_4jB_htNPawtp6MXNlb9bJvx73QtxndbTve2LxUTTJSjgouhxhdjbA-pOXj1lvwJ_seMlx_wh2jWgOAk0hGEs3jWwO4kJT53lFymULb7RAmy7DgNDVbP_ZqGubT0fX9rDc3UCctXLbSixZCPhYo9dZcBeAr-OCYtbeu6EstHROLbPuVep581hIJakppkTa7dEpz8kv3WbViPNkZ8fODHP4T4gPqudQObj9UJLNkVoUV1NYzUxAzz8vRQTiL2hdeZanafFrrA36BFeWE-x1pv3SFUFRCs1gc8THTvtXCDnZod_IzHZ_cWXQesSSXpKel8pS3Is33CSzeQPGOzr4y-m6j2DS-qzkyATQxsW-FOghp1Y8JE-CCsM7AOSomt21WXcnd1FtE2wZSYklu2mtz5ErLFiWYoC6TgPYWAbfFfK5At2cxFhy0AxaWNbCx3leukBrvQe8ns2aEJ8ur58IBE7rey77dLePDu0b1_gTLRA5cqZcu31XUxJVMVt0BoYPfyI5zfzu3liQ7P2xY7St7WeiKSaRhN9R2GtWqTy2tZv4WM0mWVagrSd0VZtaoTx3rpFs0-RbD43BUFmjF8itRDcnEA1ZgLx4nsjs_wE7BIBTyEnaYdE2kesqADDIwQvvugshPGpHbZkuNpqXM5M7-sQPFmUVKywCOvcYrlEqHec5VOl?></g></svg>